<svg width="60" height="60" viewBox="0 0 60 60" fill="none" xmlns="http://www.w3.org/2000/svg">
<circle cx="30" cy="30" r="30" fill="url(#paint0_linear)"/>
<path d="M38.1184 33.8393C37.0991 32.833 35.8266 32.833 34.8138 33.8393C34.0412 34.6054 33.2686 35.3715 32.5089 36.1506C32.3012 36.3648 32.1259 36.4103 31.8727 36.2675C31.3728 35.9948 30.8404 35.774 30.36 35.4754C28.1201 34.0665 26.2438 32.2551 24.5817 30.2165C23.7572 29.2037 23.0235 28.1195 22.5106 26.8989C22.4067 26.6522 22.4262 26.4899 22.6275 26.2886C23.4001 25.542 24.1532 24.7759 24.9128 24.0098C25.9711 22.945 25.9711 21.6985 24.9063 20.6272C24.3025 20.0169 23.6987 19.4196 23.0949 18.8093C22.4717 18.1861 21.8549 17.5563 21.2251 16.9395C20.2058 15.9462 18.9333 15.9462 17.9205 16.946C17.1414 17.7121 16.3947 18.4977 15.6027 19.2508C14.869 19.9455 14.499 20.796 14.421 21.7894C14.2977 23.406 14.6937 24.9317 15.2521 26.4185C16.3947 29.4959 18.1347 32.2292 20.2448 34.7352C23.0949 38.1243 26.497 40.8057 30.4768 42.7404C32.2687 43.6104 34.1256 44.2791 36.1447 44.3895C37.5341 44.4674 38.7417 44.1168 39.709 43.0326C40.3713 42.2924 41.1179 41.6172 41.8191 40.9095C42.8579 39.8578 42.8644 38.5853 41.8321 37.5465C40.5985 36.3064 39.3585 35.0729 38.1184 33.8393Z" fill="white"/>
<path d="M36.8776 28.6648L39.2733 28.2558C38.8968 26.0549 37.858 24.0617 36.2803 22.4776C34.6118 20.809 32.5017 19.7572 30.1774 19.4326L29.8398 21.8413C31.6382 22.0945 33.2743 22.9061 34.5663 24.1981C35.7869 25.4186 36.5855 26.9638 36.8776 28.6648Z" fill="white"/>
<path d="M40.626 18.2511C37.8602 15.4853 34.3608 13.7388 30.4978 13.2L30.1602 15.6086C33.4973 16.0761 36.5227 17.5888 38.912 19.9715C41.1778 22.2374 42.6646 25.1006 43.2034 28.2494L45.5992 27.8404C44.9694 24.1916 43.2489 20.8805 40.626 18.2511Z" fill="white"/>
<defs>
<linearGradient id="paint0_linear" x1="30" y1="0" x2="30" y2="60" gradientUnits="userSpaceOnUse">
<stop stop-color="#2CCDA4"/>
<stop offset="1" stop-color="#0DAA82"/>
</linearGradient>
</defs>
</svg>
