<svg width="60" height="60" viewBox="0 0 60 60" fill="none" xmlns="http://www.w3.org/2000/svg">
<circle cx="30" cy="30" r="30" fill="url(#paint0_linear)"/>
<mask id="mask0" mask-type="alpha" maskUnits="userSpaceOnUse" x="14" y="18" width="32" height="25">
<rect x="14" y="18" width="32" height="25" fill="#C4C4C4"/>
</mask>
<g mask="url(#mask0)">
<g filter="url(#filter0_d)">
<path fill-rule="evenodd" clip-rule="evenodd" d="M42.8088 18L16.8276 18C16.0627 18 15.4007 18.2766 14.8416 18.8294C14.2831 19.3829 14.0033 20.0475 14.0033 20.8242C14.0033 21.7538 14.2919 22.6422 14.8676 23.4892C15.4443 24.3362 16.1619 25.0601 17.0208 25.6601C19.8767 27.6422 22.0318 29.1387 23.4951 30.1554C24.2993 30.7138 24.8975 31.1296 25.2813 31.3967C25.3382 31.4367 25.4271 31.5 25.5452 31.5847C25.6724 31.6757 25.8334 31.7917 26.0316 31.9351C26.414 32.2118 26.7317 32.4353 26.9847 32.606C27.2382 32.7765 27.5439 32.9677 27.9027 33.1796C28.2619 33.3916 28.6 33.5504 28.9177 33.6562C29.2354 33.762 29.5296 33.815 29.8002 33.815H29.8177H29.8353C30.1059 33.815 30.4 33.762 30.7178 33.6562C31.0355 33.5504 31.3739 33.3912 31.7328 33.1796C32.0919 32.9677 32.398 32.7769 32.6507 32.606C32.9037 32.4353 33.2214 32.2117 33.6038 31.9351C33.8024 31.7917 33.9634 31.6758 34.0906 31.5844L34.1029 31.5756C34.2148 31.4956 34.2996 31.435 34.3541 31.3967C34.8469 31.0502 35.4436 30.6327 36.1356 30.1505C36.9474 29.5843 37.8921 28.9282 38.9785 28.1754C40.9908 26.7812 42.197 25.9427 42.597 25.6601C43.3266 25.1659 44.015 24.4866 44.662 23.6217C45.3091 22.7565 45.6327 21.9534 45.6327 21.2122C45.6327 20.2946 45.3888 19.5294 44.9002 18.9176C44.4121 18.3061 43.7152 18 42.8088 18ZM15.765 27.5491C18.1692 29.1763 20.2125 30.5771 21.8952 31.7523L14 39.6479V26.0133C14.5062 26.5784 15.0945 27.0901 15.765 27.5491ZM45.6327 26.0133C45.115 26.59 44.5204 27.102 43.8498 27.5491C41.3504 29.2476 39.3145 30.646 37.7343 31.7492L45.6327 39.6476L45.6327 26.0133ZM14.9793 42.1537C15.503 42.6172 16.1191 42.852 16.8301 42.852L42.8113 42.852C43.5223 42.852 44.1387 42.6172 44.6624 42.1537L35.6995 33.1897C35.4753 33.3507 35.2679 33.5011 35.0809 33.6381C34.41 34.1323 33.866 34.5178 33.4481 34.7941C33.0306 35.071 32.4746 35.3532 31.7802 35.6414C31.0857 35.9299 30.4387 36.0737 29.8384 36.0737H29.8209H29.8033C29.2031 36.0737 28.5561 35.9299 27.8615 35.6414C27.1675 35.3532 26.6115 35.071 26.1936 34.7941C25.7757 34.5178 25.2314 34.1322 24.5608 33.6381C24.3639 33.4958 24.1555 33.3461 23.9405 33.1921L14.9793 42.1537Z" fill="white"/>
</g>
</g>
<defs>
<filter id="filter0_d" x="-21" y="-7" width="101.633" height="94.852" filterUnits="userSpaceOnUse" color-interpolation-filters="sRGB">
<feFlood flood-opacity="0" result="BackgroundImageFix"/>
<feColorMatrix in="SourceAlpha" type="matrix" values="0 0 0 0 0 0 0 0 0 0 0 0 0 0 0 0 0 0 127 0"/>
<feOffset dy="10"/>
<feGaussianBlur stdDeviation="17.5"/>
<feColorMatrix type="matrix" values="0 0 0 0 0.455382 0 0 0 0 0.476562 0 0 0 0 0.508333 0 0 0 0.35 0"/>
<feBlend mode="normal" in2="BackgroundImageFix" result="effect1_dropShadow"/>
<feBlend mode="normal" in="SourceGraphic" in2="effect1_dropShadow" result="shape"/>
</filter>
<linearGradient id="paint0_linear" x1="30" y1="0" x2="30" y2="60" gradientUnits="userSpaceOnUse">
<stop stop-color="#F2BD00"/>
<stop offset="1" stop-color="#E49700"/>
</linearGradient>
</defs>
</svg>
