<svg width="60" height="60" viewBox="0 0 60 60" fill="none" xmlns="http://www.w3.org/2000/svg">
<circle cx="30" cy="30" r="30" fill="url(#paint0_linear)"/>
<path d="M29.9969 14.4029C21.5667 14.2367 14.5909 20.9219 14.3984 29.3515C14.4204 33.6424 16.3205 37.7087 19.5979 40.4784V44.9499C19.5979 45.3089 19.8889 45.5999 20.2479 45.5999C20.3697 45.5999 20.489 45.5657 20.5923 45.5011L24.2151 43.2381C26.0608 43.944 28.0208 44.304 29.9969 44.3C38.4271 44.4663 45.4029 37.7811 45.5954 29.3515C45.4029 20.9219 38.4271 14.2367 29.9969 14.4029Z" fill="white"/>
<path d="M40.2687 25.0618C40.0753 24.8026 39.7207 24.7251 39.4368 24.8798L32.6774 28.565L28.4724 24.9591C28.2145 24.7381 27.8299 24.7527 27.5898 24.9929L19.7905 32.7922C19.5375 33.0467 19.5387 33.4583 19.7933 33.7113C19.9969 33.9137 20.3091 33.9585 20.5614 33.8217L27.3207 30.1365L31.5297 33.7437C31.7875 33.9647 32.1721 33.9501 32.4123 33.7099L40.2115 25.9106C40.4388 25.6812 40.4632 25.3197 40.2687 25.0618Z" fill="#2196F3"/>
<defs>
<linearGradient id="paint0_linear" x1="30" y1="0" x2="30" y2="60" gradientUnits="userSpaceOnUse">
<stop stop-color="#00C6FF"/>
<stop offset="1" stop-color="#0074FF"/>
</linearGradient>
</defs>
</svg>
