<svg width="60" height="60" viewBox="0 0 60 60" fill="none" xmlns="http://www.w3.org/2000/svg">
<circle cx="30" cy="30" r="30" fill="url(#paint0_linear)"/>
<path d="M18.9616 38.5877C19.0821 38.6942 19.1652 38.8345 19.1993 38.9889C19.2335 39.1433 19.2169 39.3042 19.152 39.4491C18.9519 39.9141 18.7809 40.3854 18.5356 40.8317C17.9419 41.9022 17.048 42.7043 16.1477 43.5064C15.7346 43.8871 15.2958 44.2679 14.9118 44.6736C14.5277 45.0794 14.6246 45.2604 15.157 45.3915C16.5414 45.7316 17.9225 45.6099 19.294 45.3509C21.8755 44.8609 24.328 43.9027 26.716 42.8104C26.9875 42.6764 27.296 42.6294 27.5969 42.6762C29.9016 43.0611 32.2625 42.9975 34.5414 42.4889C38.83 41.4933 42.3087 39.2805 44.7031 35.5291C46.4377 32.8651 47.0842 29.6718 46.5166 26.5718C45.8519 22.7018 43.7447 19.7212 40.5822 17.5209C37.738 15.4992 34.302 14.4061 30.7723 14.3999C29.9333 14.453 29.0878 14.4592 28.2552 14.5716C24.6475 15.0522 21.4367 16.4442 18.7841 18.9566C16.2961 21.3223 14.7665 24.1874 14.489 27.6548C14.2136 30.8076 15.1398 33.9491 17.0932 36.4872C17.678 37.2182 18.3017 37.9192 18.9616 38.5877V38.5877Z" fill="white"/>
<path d="M20.9045 31.5992C22.1665 31.5992 23.3532 31.5909 24.5316 31.5992C25.1919 31.6075 25.5512 31.8821 25.6181 32.4062C25.6933 33.0635 25.3089 33.5044 24.5901 33.5128C23.2362 33.5294 21.8907 33.5211 20.5368 33.5211C20.144 33.5211 19.7595 33.5377 19.3667 33.5128C18.882 33.4878 18.4056 33.388 18.18 32.8888C17.946 32.3896 18.1131 31.9403 18.4307 31.5326C19.7177 29.9019 21.0131 28.2629 22.3086 26.6322C22.3838 26.5323 22.459 26.4325 22.5342 26.341C22.459 26.1995 22.3336 26.2661 22.2333 26.2661C21.3307 26.2578 20.4198 26.2661 19.5172 26.2578C19.3082 26.2578 19.0993 26.2411 18.8987 26.1912C18.4808 26.0831 18.2217 25.7503 18.2217 25.3509C18.2217 24.9516 18.4641 24.6104 18.882 24.494C19.0826 24.4357 19.2915 24.4191 19.5004 24.4191C20.9881 24.4108 22.4841 24.4108 23.9717 24.4191C24.2391 24.4191 24.4982 24.4274 24.7573 24.5106C25.3256 24.702 25.568 25.2261 25.3423 25.7752C25.1417 26.2495 24.8241 26.6571 24.5066 27.0648C23.4117 28.4459 22.3169 29.827 21.2221 31.2165C21.1218 31.308 21.0382 31.4161 20.9045 31.5992Z" fill="#0180C7"/>
<path d="M30.5886 27.2227C30.7891 26.9648 30.9981 26.7235 31.3407 26.6569C32.001 26.5238 32.6194 26.9481 32.6278 27.6137C32.6528 29.2777 32.6445 30.9417 32.6278 32.6057C32.6278 33.0633 32.3436 33.4044 31.9341 33.5458C31.4995 33.6956 31.0566 33.5874 30.7641 33.2213C30.622 33.0466 30.5635 33.0133 30.3629 33.1714C29.6024 33.7871 28.7415 33.8953 27.8139 33.5957C26.3262 33.1132 25.7161 31.9567 25.549 30.5423C25.3735 29.0198 25.8833 27.7219 27.2456 26.9232C28.3905 26.2576 29.5439 26.3158 30.5886 27.2227ZM27.63 30.2594C27.6384 30.5423 27.7303 30.9334 27.981 31.2662C28.5243 31.99 29.6358 31.99 30.1707 31.2662C30.6387 30.6338 30.6387 29.5939 30.1707 28.9615C29.92 28.6287 29.594 28.454 29.1761 28.4291C28.2652 28.3791 27.6216 29.0863 27.63 30.2594Z" fill="#0180C7"/>
<path d="M36.4007 30.3093C36.3339 28.1711 37.7463 26.5737 39.7437 26.5154C41.8749 26.4489 43.4294 27.8716 43.4962 29.9515C43.5631 32.0565 42.2677 33.5457 40.2702 33.7454C38.0973 33.9617 36.3673 32.3893 36.4007 30.3093ZM38.4984 30.1096C38.4984 30.5339 38.5987 30.9333 38.8578 31.2744C39.3843 31.9816 40.4875 31.9899 41.0224 31.2911C41.5071 30.6587 41.5071 29.5938 41.0308 28.9615C40.78 28.6287 40.4457 28.4623 40.0362 28.4373C39.1336 28.3874 38.5068 29.0696 38.4984 30.1096Z" fill="#0180C7"/>
<path d="M35.66 28.6539C35.66 29.9435 35.6684 31.2331 35.66 32.5227C35.6517 33.2632 34.9998 33.7623 34.2978 33.5793C33.8799 33.4712 33.5623 33.0302 33.5623 32.506C33.5623 30.3013 33.5623 28.0965 33.5623 25.8917C33.5623 25.5007 33.554 25.118 33.5623 24.7269C33.5707 24.0863 33.9802 23.6703 34.5986 23.6703C35.2338 23.662 35.66 24.078 35.66 24.7436C35.6684 26.0498 35.66 27.3477 35.66 28.6539Z" fill="#0180C7"/>
<defs>
<linearGradient id="paint0_linear" x1="30" y1="0" x2="30" y2="60" gradientUnits="userSpaceOnUse">
<stop stop-color="#00A4FF"/>
<stop offset="1" stop-color="#0180C7"/>
</linearGradient>
</defs>
</svg>
