<svg width="25" height="20" viewBox="0 0 25 20" fill="none" xmlns="http://www.w3.org/2000/svg">
<path fill-rule="evenodd" clip-rule="evenodd" d="M12.462 0.0668018L24.0346 4.51122C24.133 4.55771 24.2157 4.6278 24.2736 4.71395C24.3316 4.80009 24.3627 4.89903 24.3636 5.0001V19.4444C24.3636 19.5918 24.2994 19.7331 24.1852 19.8373C24.0709 19.9415 23.916 20 23.7545 20H21.3181C21.1566 20 21.0016 19.9415 20.8874 19.8373C20.7732 19.7331 20.709 19.5918 20.709 19.4444V7.77786H3.65453V19.4444C3.65453 19.5918 3.59036 19.7331 3.47613 19.8373C3.36191 19.9415 3.20698 20 3.04544 20H0.609089C0.447548 20 0.292624 19.9415 0.178398 19.8373C0.0641718 19.7331 0 19.5918 0 19.4444V5.0001C0.000879332 4.89903 0.0319721 4.80009 0.0899295 4.71395C0.147887 4.6278 0.230513 4.55771 0.328908 4.51122L11.9016 0.0668018C11.9872 0.0230031 12.0836 0 12.1818 0C12.2799 0 12.3764 0.0230031 12.462 0.0668018ZM7.30965 15.5544H10.9642C11.3006 15.5544 11.5733 15.8031 11.5733 16.1099V19.4432C11.5733 19.7501 11.3006 19.9988 10.9642 19.9988H7.30965C6.97326 19.9988 6.70056 19.7501 6.70056 19.4432V16.1099C6.70056 15.8031 6.97326 15.5544 7.30965 15.5544ZM17.0549 15.5544H13.4003C13.064 15.5544 12.7913 15.8031 12.7913 16.1099V19.4432C12.7913 19.7501 13.064 19.9988 13.4003 19.9988H17.0549C17.3913 19.9988 17.664 19.7501 17.664 19.4432V16.1099C17.664 15.8031 17.3913 15.5544 17.0549 15.5544ZM10.3541 10H14.0086C14.345 10 14.6177 10.2487 14.6177 10.5556V13.8889C14.6177 14.1957 14.345 14.4444 14.0086 14.4444H10.3541C10.0177 14.4444 9.745 14.1957 9.745 13.8889V10.5556C9.745 10.2487 10.0177 10 10.3541 10Z" fill="white"/>
</svg>
