<svg width="24" height="20" viewBox="0 0 24 20" fill="none" xmlns="http://www.w3.org/2000/svg">
<path d="M10.7778 8.35214C10.2255 8.35214 9.77778 8.79985 9.77778 9.35214C9.77778 9.90442 10.2255 10.3521 10.7778 10.3521L10.7778 8.35214ZM9.31111 6.30285L8.83 5.42619C8.42969 5.64588 8.22904 6.10885 8.34244 6.55118C8.45583 6.99352 8.85447 7.30285 9.31111 7.30285L9.31111 6.30285ZM10.2889 11.4014C9.7366 11.4014 9.28889 11.8491 9.28889 12.4014C9.28889 12.9537 9.7366 13.4014 10.2889 13.4014L10.2889 11.4014ZM9.8 14.4507C9.24771 14.4507 8.8 14.8984 8.8 15.4507C8.8 16.003 9.24771 16.4507 9.8 16.4507L9.8 14.4507ZM8.11321 18.3421L8.33064 17.366L8.31455 17.3624L8.29836 17.3594L8.11321 18.3421ZM1.7729 17.1475L1.55548 18.1236L1.57156 18.1272L1.58776 18.1302L1.7729 17.1475ZM1.5592 6.02749L1.15639 5.11221L1.13672 5.12086L1.11744 5.13036L1.5592 6.02749ZM11.5548 1.62853L11.9576 2.54381L11.9643 2.54088L11.9709 2.53785L11.5548 1.62853ZM12.882 4.34317L13.3631 5.21983L13.3817 5.20964L13.3998 5.19868L12.882 4.34317ZM21.5333 7.30285C21.7549 7.30285 22 7.50085 22 7.82749L24 7.82749C24 6.47007 22.9318 5.30285 21.5333 5.30285L21.5333 7.30285ZM22 7.82749C22 8.15414 21.7549 8.35214 21.5333 8.35214L21.5333 10.3521C22.9318 10.3521 24 9.18492 24 7.82749L22 7.82749ZM21.5333 8.35214L15.1778 8.35214L15.1778 10.3521L21.5333 10.3521L21.5333 8.35214ZM15.1778 8.35214L10.7778 8.35214L10.7778 10.3521L15.1778 10.3521L15.1778 8.35214ZM21.5333 5.30285L9.31111 5.30285L9.31111 7.30285L21.5333 7.30285L21.5333 5.30285ZM15.1778 10.3521C15.3993 10.3521 15.6444 10.5501 15.6444 10.8768L17.6444 10.8768C17.6444 9.51935 16.5763 8.35214 15.1778 8.35214L15.1778 10.3521ZM15.6444 10.8768C15.6444 11.2034 15.3993 11.4014 15.1778 11.4014L15.1778 13.4014C16.5763 13.4014 17.6444 12.2342 17.6444 10.8768L15.6444 10.8768ZM14.2 13.4014C14.4215 13.4014 14.6667 13.5994 14.6667 13.9261L16.6667 13.9261C16.6667 12.5686 15.5985 11.4014 14.2 11.4014L14.2 13.4014ZM14.6667 13.9261C14.6667 14.2527 14.4215 14.4507 14.2 14.4507L14.2 16.4507C15.5985 16.4507 16.6667 15.2835 16.6667 13.9261L14.6667 13.9261ZM12.7345 16.4507C12.956 16.4507 13.2011 16.6487 13.2011 16.9754L15.2011 16.9754C15.2011 15.6179 14.133 14.4507 12.7345 14.4507L12.7345 16.4507ZM13.2011 16.9754C13.2011 17.302 12.956 17.5 12.7345 17.5L12.7345 19.5C14.133 19.5 15.2011 18.3328 15.2011 16.9754L13.2011 16.9754ZM15.1778 11.4014L14.2 11.4014L14.2 13.4014L15.1778 13.4014L15.1778 11.4014ZM14.2 11.4014L10.2889 11.4014L10.2889 13.4014L14.2 13.4014L14.2 11.4014ZM14.2 14.4507L12.7345 14.4507L12.7345 16.4507L14.2 16.4507L14.2 14.4507ZM12.7345 14.4507L9.8 14.4507L9.8 16.4507L12.7345 16.4507L12.7345 14.4507ZM12.7345 17.5L9.54732 17.5L9.54732 19.5L12.7345 19.5L12.7345 17.5ZM8.29836 17.3594L1.95805 16.1648L1.58776 18.1302L7.92807 19.3248L8.29836 17.3594ZM2 16.1537L2 6.94608L-2.38056e-07 6.94608L-6.40532e-07 16.1537L2 16.1537ZM1.96201 6.94278L11.9576 2.54381L11.152 0.713246L1.15639 5.11221L1.96201 6.94278ZM2 6.94608C2 6.93473 2.00313 6.92678 2.00572 6.92253C2.00822 6.91842 2.00789 6.92122 2.00096 6.92463L1.11744 5.13036C0.420515 5.47354 -2.0491e-07 6.18779 -2.38056e-07 6.94608L2 6.94608ZM9.54732 17.5C9.13853 17.5 8.73074 17.4551 8.33064 17.366L7.89579 19.3181C8.43839 19.439 8.99201 19.5 9.54732 19.5L9.54732 17.5ZM1.99033 16.1714C1.99605 16.1727 2.00108 16.175 2.00443 16.1772C2.00742 16.1791 2.00781 16.1801 2.00678 16.1788C2.00456 16.1759 2 16.1679 2 16.1537L-6.40532e-07 16.1537C-6.80843e-07 17.0759 0.622846 17.9159 1.55548 18.1236L1.99033 16.1714ZM12.1451 2.5C12.3667 2.5 12.6118 2.698 12.6118 3.02464L14.6118 3.02464C14.6118 1.66721 13.5436 0.5 12.1451 0.5L12.1451 2.5ZM12.6118 3.02464C12.6118 3.23573 12.5029 3.40374 12.3642 3.48766L13.3998 5.19868C14.134 4.75432 14.6118 3.93917 14.6118 3.02464L12.6118 3.02464ZM12.4009 3.46651L8.83 5.42619L9.79222 7.17951L13.3631 5.21983L12.4009 3.46651ZM11.9709 2.53785C12.0243 2.5134 12.0824 2.5 12.1451 2.5L12.1451 0.5C11.7878 0.5 11.4465 0.57836 11.1387 0.719208L11.9709 2.53785Z" fill="white"/>
</svg>
