<svg width="17" height="13" viewBox="0 0 17 13" fill="none" xmlns="http://www.w3.org/2000/svg">
<path fill-rule="evenodd" clip-rule="evenodd" d="M10.1366 4.7984L10.1902 3.96389H11.4773V5.00702L15.2314 9.7011L15.3387 12.8826C10.083 13.0391 6.22164 13.0391 0.965951 12.8826L1.07321 9.7011L4.77364 5.00702L4.82727 3.96389H6.11438L6.16801 4.7984H10.1366ZM4.02283 3.44233V4.74624C4.02283 5.42427 3.43291 6.05015 2.68209 6.05015C2.03854 6.05015 1.66313 6.05015 0.965951 6.05015C0.215138 6.05015 0.00061987 5.42427 0.00061987 4.69408C-0.0530096 -1.56469 16.304 -1.56469 16.2504 4.69408C16.2504 5.42427 16.0895 6.05015 15.3387 6.05015C14.6415 6.05015 14.2661 6.05015 13.6225 6.05015C12.8717 6.05015 12.2281 5.42427 12.2281 4.74624V3.44233C12.2281 1.87763 4.02283 1.87763 4.02283 3.44233ZM6.00712 9.80542H6.48979C6.70431 9.80542 6.8652 9.96189 6.8652 10.1184V10.6399C6.8652 10.7964 6.70431 10.9529 6.48979 10.9529H6.00712C5.79261 10.9529 5.63172 10.7964 5.63172 10.6399V10.1184C5.63172 9.96189 5.79261 9.80542 6.00712 9.80542ZM6.00712 8.13641H6.48979C6.70431 8.13641 6.8652 8.29288 6.8652 8.5015V8.97091C6.8652 9.17954 6.70431 9.33601 6.48979 9.33601H6.00712C5.79261 9.33601 5.63172 9.17954 5.63172 8.97091V8.5015C5.63172 8.29288 5.79261 8.13641 6.00712 8.13641ZM9.76119 8.13641H10.2975C10.4584 8.13641 10.6193 8.29288 10.6193 8.5015V8.97091C10.6193 9.17954 10.4584 9.33601 10.2975 9.33601H9.76119C9.6003 9.33601 9.43941 9.17954 9.43941 8.97091V8.5015C9.43941 8.29288 9.6003 8.13641 9.76119 8.13641ZM7.88416 8.13641H8.36682C8.58134 8.13641 8.74223 8.29288 8.74223 8.5015V8.97091C8.74223 9.17954 8.58134 9.33601 8.36682 9.33601H7.88416C7.66964 9.33601 7.50875 9.17954 7.50875 8.97091V8.5015C7.50875 8.29288 7.66964 8.13641 7.88416 8.13641ZM7.88416 6.51956H8.36682C8.58134 6.51956 8.74223 6.67603 8.74223 6.88465V7.35406C8.74223 7.56269 8.58134 7.71916 8.36682 7.71916H7.88416C7.66964 7.71916 7.50875 7.56269 7.50875 7.35406V6.88465C7.50875 6.67603 7.66964 6.51956 7.88416 6.51956ZM6.00712 6.51956H6.48979C6.70431 6.51956 6.8652 6.67603 6.8652 6.88465V7.35406C6.8652 7.56269 6.70431 7.71916 6.48979 7.71916H6.00712C5.79261 7.71916 5.63172 7.56269 5.63172 7.35406V6.88465C5.63172 6.67603 5.79261 6.51956 6.00712 6.51956ZM9.76119 6.51956H10.2975C10.4584 6.51956 10.6193 6.67603 10.6193 6.88465V7.35406C10.6193 7.56269 10.4584 7.71916 10.2975 7.71916H9.76119C9.6003 7.71916 9.43941 7.56269 9.43941 7.35406V6.88465C9.43941 6.67603 9.6003 6.51956 9.76119 6.51956ZM9.76119 9.80542H10.2975C10.4584 9.80542 10.6193 9.96189 10.6193 10.1184V10.6399C10.6193 10.7964 10.4584 10.9529 10.2975 10.9529H9.76119C9.6003 10.9529 9.43941 10.7964 9.43941 10.6399V10.1184C9.43941 9.96189 9.6003 9.80542 9.76119 9.80542ZM7.88416 9.80542H8.36682C8.58134 9.80542 8.74223 9.96189 8.74223 10.1184V10.6399C8.74223 10.7964 8.58134 10.9529 8.36682 10.9529H7.88416C7.66964 10.9529 7.50875 10.7964 7.50875 10.6399V10.1184C7.50875 9.96189 7.66964 9.80542 7.88416 9.80542Z" fill="url(#paint0_linear_26_509)"/>
<defs>
<linearGradient id="paint0_linear_26_509" x1="0.273287" y1="0.544843" x2="17.8646" y2="6.31273" gradientUnits="userSpaceOnUse">
<stop stop-color="#D63C32"/>
<stop offset="1" stop-color="#FF4F44"/>
</linearGradient>
</defs>
</svg>
