<svg width="35" height="35" viewBox="0 0 35 35" fill="none" xmlns="http://www.w3.org/2000/svg">
<path d="M24.8325 0H10.1675C3.7975 0 0 3.7975 0 10.1675V24.815C0 31.2025 3.7975 35 10.1675 35H24.815C31.185 35 34.9825 31.2025 34.9825 24.8325V10.1675C35 3.7975 31.2025 0 24.8325 0ZM9.8525 28.2625C9.8525 28.98 9.2575 29.575 8.54 29.575C7.8225 29.575 7.2275 28.98 7.2275 28.2625V24.64C7.2275 23.9225 7.8225 23.3275 8.54 23.3275C9.2575 23.3275 9.8525 23.9225 9.8525 24.64V28.2625ZM18.8125 28.2625C18.8125 28.98 18.2175 29.575 17.5 29.575C16.7825 29.575 16.1875 28.98 16.1875 28.2625V21C16.1875 20.2825 16.7825 19.6875 17.5 19.6875C18.2175 19.6875 18.8125 20.2825 18.8125 21V28.2625ZM27.7725 28.2625C27.7725 28.98 27.1775 29.575 26.46 29.575C25.7425 29.575 25.1475 28.98 25.1475 28.2625V17.3775C25.1475 16.66 25.7425 16.065 26.46 16.065C27.1775 16.065 27.7725 16.66 27.7725 17.3775V28.2625ZM27.7725 11.8475C27.7725 12.565 27.1775 13.16 26.46 13.16C25.7425 13.16 25.1475 12.565 25.1475 11.8475V10.15C20.685 14.735 15.1025 17.9725 8.855 19.53C8.75 19.565 8.645 19.565 8.54 19.565C7.945 19.565 7.42 19.1625 7.2625 18.5675C7.0875 17.8675 7.5075 17.15 8.225 16.975C14.1225 15.505 19.3725 12.4075 23.5375 8.0325H21.35C20.6325 8.0325 20.0375 7.4375 20.0375 6.72C20.0375 6.0025 20.6325 5.4075 21.35 5.4075H26.4775C26.5475 5.4075 26.6 5.4425 26.67 5.4425C26.7575 5.46 26.845 5.46 26.9325 5.495C27.02 5.53 27.09 5.5825 27.1775 5.635C27.23 5.67 27.2825 5.6875 27.335 5.7225C27.3525 5.74 27.3525 5.7575 27.37 5.7575C27.44 5.8275 27.4925 5.8975 27.545 5.9675C27.5975 6.0375 27.65 6.09 27.6675 6.16C27.7025 6.23 27.7025 6.3 27.72 6.3875C27.7375 6.475 27.7725 6.5625 27.7725 6.6675C27.7725 6.685 27.79 6.7025 27.79 6.72V11.8475H27.7725Z" fill="#EE0033"/>
</svg>
