<svg width="27" height="38" viewBox="0 0 27 38" fill="none" xmlns="http://www.w3.org/2000/svg">
<path d="M13.2002 0C8.2877 0 4.29395 3.99375 4.29395 8.90625C4.29395 13.725 8.0627 17.625 12.9752 17.7937C13.1252 17.775 13.2752 17.775 13.3877 17.7937C13.4252 17.7937 13.4439 17.7937 13.4814 17.7937C13.5002 17.7937 13.5002 17.7937 13.5189 17.7937C18.3189 17.625 22.0877 13.725 22.1064 8.90625C22.1064 3.99375 18.1127 0 13.2002 0Z" fill="#EE0033"/>
<path d="M22.725 22.8C17.4937 19.3125 8.9625 19.3125 3.69375 22.8C1.3125 24.375 0 26.5312 0 28.8375C0 31.1437 1.3125 33.2812 3.675 34.8562C6.3 36.6187 9.75 37.5 13.2 37.5C16.65 37.5 20.1 36.6187 22.725 34.8562C25.0875 33.2625 26.4 31.125 26.4 28.8C26.3813 26.5125 25.0875 24.3562 22.725 22.8ZM17.5688 27.3L12.8438 32.025C12.6188 32.25 12.3187 32.3625 12.0187 32.3625C11.7188 32.3625 11.4188 32.2312 11.1938 32.025L8.83125 29.6625C8.38125 29.2125 8.38125 28.4625 8.83125 28.0125C9.28125 27.5625 10.0312 27.5625 10.4813 28.0125L12.0187 29.55L15.9187 25.65C16.3687 25.2 17.1187 25.2 17.5688 25.65C18.0375 26.1 18.0375 26.85 17.5688 27.3Z" fill="#EE0033"/>
</svg>
