<svg width="35" height="35" viewBox="0 0 35 35" fill="none" xmlns="http://www.w3.org/2000/svg">
<path d="M17.4475 2.93706e-05C7.78758 0.0350292 -0.0348829 7.8925 0.000116993 17.5525C0.0351168 27.2124 7.89258 35.0349 17.5525 34.9999C27.2125 34.9649 35.035 27.1074 35 17.4475C34.965 7.7875 27.1075 -0.0174706 17.4475 2.93706e-05ZM21.455 17.675C22.82 18.1475 24.6575 19.1624 24.6575 22.2949C24.6575 24.9899 22.54 27.1599 19.95 27.1599H18.8125V28.1749C18.8125 28.8924 18.2175 29.4874 17.5 29.4874C16.7825 29.4874 16.1875 28.8924 16.1875 28.1749V27.1599H15.5575C12.6876 27.1599 10.3601 24.7449 10.3601 21.7699C10.3601 21.0524 10.9551 20.4574 11.6726 20.4574C12.3901 20.4574 12.9851 21.0524 12.9851 21.7699C12.9851 23.2924 14.1401 24.5349 15.5575 24.5349H16.1875V18.62L13.5451 17.675C12.1801 17.2025 10.3426 16.1875 10.3426 13.055C10.3426 10.36 12.4601 8.18999 15.0501 8.18999H16.1875V7.175C16.1875 6.4575 16.7825 5.8625 17.5 5.8625C18.2175 5.8625 18.8125 6.4575 18.8125 7.175V8.18999H19.4425C22.3125 8.18999 24.64 10.605 24.64 13.58C24.64 14.2975 24.045 14.8925 23.3275 14.8925C22.61 14.8925 22.015 14.2975 22.015 13.58C22.015 12.0575 20.86 10.815 19.4425 10.815H18.8125V16.73L21.455 17.675Z" fill="#EE0033"/>
</svg>
