<svg width="35" height="35" viewBox="0 0 35 35" fill="none" xmlns="http://www.w3.org/2000/svg">
<path d="M28.4521 8.53124L19.7896 3.52916C18.375 2.71249 16.625 2.71249 15.1958 3.52916L6.54788 8.53124C5.1333 9.34791 4.2583 10.8646 4.2583 12.5125V22.4875C4.2583 24.1208 5.1333 25.6375 6.54788 26.4687L15.2104 31.4708C16.625 32.2875 18.375 32.2875 19.8041 31.4708L28.4666 26.4687C29.8812 25.6521 30.7562 24.1354 30.7562 22.4875V12.5125C30.7416 10.8646 29.8666 9.36249 28.4521 8.53124ZM17.5 10.7042C19.3812 10.7042 20.8979 12.2208 20.8979 14.1021C20.8979 15.9833 19.3812 17.5 17.5 17.5C15.6187 17.5 14.1021 15.9833 14.1021 14.1021C14.1021 12.2354 15.6187 10.7042 17.5 10.7042ZM21.4083 24.2958H13.5916C12.4104 24.2958 11.725 22.9833 12.3812 22.0062C13.3729 20.5333 15.2979 19.5417 17.5 19.5417C19.7021 19.5417 21.6271 20.5333 22.6187 22.0062C23.275 22.9687 22.575 24.2958 21.4083 24.2958Z" fill="#EE0033"/>
</svg>
