<svg width="30" height="30" viewBox="0 0 30 30" fill="none" xmlns="http://www.w3.org/2000/svg">
<path d="M27.9496 10.3375L27.5871 6.875C27.0621 3.1 25.3496 1.5625 21.6871 1.5625H18.7371H16.8871H13.0871H11.2371H8.23706C4.56206 1.5625 2.86206 3.1 2.32456 6.9125L1.98706 10.35C1.86206 11.6875 2.22456 12.9875 3.01206 14C3.96206 15.2375 5.42456 15.9375 7.04956 15.9375C8.62456 15.9375 10.1371 15.15 11.0871 13.8875C11.9371 15.15 13.3871 15.9375 14.9996 15.9375C16.6121 15.9375 18.0246 15.1875 18.8871 13.9375C19.8496 15.175 21.3371 15.9375 22.8871 15.9375C24.5496 15.9375 26.0496 15.2 26.9871 13.9C27.7371 12.9 28.0746 11.6375 27.9496 10.3375Z" fill="#EE0033"/>
<path d="M14.1879 20.825C12.6004 20.9875 11.4004 22.3375 11.4004 23.9375V27.3625C11.4004 27.7 11.6754 27.975 12.0129 27.975H17.9754C18.3129 27.975 18.5879 27.7 18.5879 27.3625V24.375C18.6004 21.7625 17.0629 20.525 14.1879 20.825Z" fill="#EE0033"/>
<path d="M26.7121 18V21.725C26.7121 25.175 23.9121 27.975 20.4621 27.975C20.1246 27.975 19.8496 27.7 19.8496 27.3625V24.375C19.8496 22.775 19.3621 21.525 18.4121 20.675C17.5746 19.9125 16.4371 19.5375 15.0246 19.5375C14.7121 19.5375 14.3996 19.55 14.0621 19.5875C11.8371 19.8125 10.1496 21.6875 10.1496 23.9375V27.3625C10.1496 27.7 9.87461 27.975 9.53711 27.975C6.08711 27.975 3.28711 25.175 3.28711 21.725V18.025C3.28711 17.15 4.14961 16.5625 4.96211 16.85C5.29961 16.9625 5.63711 17.05 5.98711 17.1C6.13711 17.125 6.29961 17.15 6.44961 17.15C6.64961 17.175 6.84961 17.1875 7.04961 17.1875C8.49961 17.1875 9.92461 16.65 11.0496 15.725C12.1246 16.65 13.5246 17.1875 14.9996 17.1875C16.4871 17.1875 17.8621 16.675 18.9371 15.75C20.0621 16.6625 21.4621 17.1875 22.8871 17.1875C23.1121 17.1875 23.3371 17.175 23.5496 17.15C23.6996 17.1375 23.8371 17.125 23.9746 17.1C24.3621 17.05 24.7121 16.9375 25.0621 16.825C25.8746 16.55 26.7121 17.15 26.7121 18Z" fill="#EE0033"/>
</svg>
