<svg width="16" height="15" viewBox="0 0 16 15" fill="none" xmlns="http://www.w3.org/2000/svg">
<path fill-rule="evenodd" clip-rule="evenodd" d="M0.477092 8.59639C-0.13687 8.35343 -0.161166 7.90347 0.424452 7.59623L14.6696 0.126448C15.2552 -0.18028 15.5923 0.0905111 15.4187 0.728262L12.3438 12.0306C12.1697 12.6684 11.5147 12.9619 10.9018 12.7129L8.88427 11.8914C8.27183 11.6424 7.26712 11.242 6.65062 11.0036L6.43753 10.9206C5.82104 10.6822 5.68742 10.0911 6.13992 9.6097L12.3848 2.92547C12.8358 2.4426 12.7801 2.38236 12.2608 2.79083L4.3613 9.02054C3.84047 9.42698 2.91067 9.5601 2.2962 9.31613L0.477092 8.59639ZM6.66074 13.1422C6.66074 13.1422 5.38068 15.1035 5.41662 14.9957C5.45357 14.8849 4.15833 11.7629 4.15833 11.7629C3.90525 11.152 4.19831 10.8584 4.80974 11.1085L6.20571 11.6799C6.81714 11.93 7.02264 12.5895 6.66074 13.1422Z" fill="url(#paint0_linear_26_513)"/>
<defs>
<linearGradient id="paint0_linear_26_513" x1="0.260089" y1="0.628665" x2="17.5367" y2="5.30055" gradientUnits="userSpaceOnUse">
<stop stop-color="#D63C32"/>
<stop offset="1" stop-color="#FF4F44"/>
</linearGradient>
</defs>
</svg>
