<svg width="35" height="35" viewBox="0 0 35 35" fill="none" xmlns="http://www.w3.org/2000/svg">
<path d="M17.5003 2.91669C13.6795 2.91669 10.5732 6.02294 10.5732 9.84377C10.5732 13.5917 13.5045 16.625 17.3253 16.7563C17.442 16.7417 17.5587 16.7417 17.6462 16.7563C17.6753 16.7563 17.6899 16.7563 17.7191 16.7563C17.7337 16.7563 17.7337 16.7563 17.7482 16.7563C21.4816 16.625 24.4128 13.5917 24.4274 9.84377C24.4274 6.02294 21.3212 2.91669 17.5003 2.91669Z" fill="#EE0033"/>
<path d="M24.9084 20.6354C20.8396 17.9229 14.2042 17.9229 10.1063 20.6354C8.25423 21.875 7.2334 23.5521 7.2334 25.3459C7.2334 27.1396 8.25423 28.8021 10.0917 30.0271C12.1334 31.3979 14.8167 32.0834 17.5001 32.0834C20.1834 32.0834 22.8667 31.3979 24.9084 30.0271C26.7459 28.7875 27.7667 27.125 27.7667 25.3167C27.7521 23.523 26.7459 21.8604 24.9084 20.6354ZM20.3292 26.6292C20.7521 27.0521 20.7521 27.7521 20.3292 28.175C20.1105 28.3938 19.8334 28.4959 19.5563 28.4959C19.2792 28.4959 19.0021 28.3938 18.7834 28.175L17.5001 26.8917L16.2167 28.175C15.998 28.3938 15.7209 28.4959 15.4438 28.4959C15.1667 28.4959 14.8896 28.3938 14.6709 28.175C14.248 27.7521 14.248 27.0521 14.6709 26.6292L15.9542 25.3459L14.6709 24.0625C14.248 23.6396 14.248 22.9396 14.6709 22.5167C15.0938 22.0938 15.7938 22.0938 16.2167 22.5167L17.5001 23.8L18.7834 22.5167C19.2063 22.0938 19.9063 22.0938 20.3292 22.5167C20.7521 22.9396 20.7521 23.6396 20.3292 24.0625L19.0459 25.3459L20.3292 26.6292Z" fill="#EE0033"/>
</svg>
