<svg width="180" height="160" viewBox="0 0 180 160" fill="none" xmlns="http://www.w3.org/2000/svg">
<path d="M164.736 96.6313C164.467 95.2748 164.033 93.9563 163.443 92.7052C162.816 91.3496 162.055 90.0601 161.171 88.8558C160.25 87.5968 159.204 86.4343 158.049 85.386C156.973 84.3995 155.78 83.5498 154.496 82.8563C153.425 82.2625 152.259 81.8587 151.051 81.6627C150.032 81.4901 148.985 81.6051 148.028 81.9948C147.088 82.4047 146.331 83.1453 145.901 84.0762C145.378 85.2381 145.166 86.5157 145.286 87.7841C145.414 89.3677 145.794 90.9206 146.413 92.384C147.113 94.0829 148.02 95.6889 149.114 97.1654C150.243 98.6963 151.561 100.079 153.036 101.279C154.309 102.331 155.743 103.172 157.283 103.77C158.433 104.225 159.676 104.397 160.906 104.269C161.886 104.159 162.799 103.72 163.496 103.023C164.203 102.266 164.664 101.313 164.821 100.289C165.013 99.0748 164.984 97.8356 164.736 96.6313V96.6313Z" fill="url(#paint0_linear_12_493)"/>
<path d="M165.846 96.5608C165.544 95.1139 165.073 93.7073 164.444 92.3697C163.055 89.4085 161.097 86.7498 158.681 84.5455C157.533 83.4861 156.262 82.5682 154.896 81.8115C153.749 81.1721 152.503 80.7299 151.209 80.5033C150.122 80.3003 149 80.4036 147.968 80.8015C146.955 81.2211 146.133 82.0025 145.663 82.9939C145.358 83.6331 145.16 84.3184 145.079 85.022C144.968 85.8324 144.961 86.6535 145.056 87.4659C145.159 88.3917 145.344 89.3064 145.611 90.199C145.914 91.1901 146.289 92.1576 146.734 93.0937L146.905 93.4543C146.498 92.5909 146.153 91.6994 145.873 90.7866C145.621 89.96 145.445 89.1122 145.348 88.2537C145.267 87.4965 145.273 86.7325 145.366 85.9767C145.449 85.3176 145.638 84.6763 145.926 84.0774C146.356 83.1466 147.113 82.406 148.054 81.9961C149.01 81.6064 150.057 81.4913 151.076 81.6639C152.285 81.8599 153.45 82.2637 154.521 82.8575C155.805 83.5511 156.999 84.4008 158.074 85.3873C159.229 86.4356 160.275 87.5981 161.196 88.857C162.08 90.0613 162.841 91.3509 163.469 92.7065C164.058 93.9575 164.492 95.276 164.761 96.6325C165.011 97.843 165.039 99.0887 164.843 100.309C164.686 101.333 164.224 102.285 163.518 103.043C162.821 103.74 161.908 104.179 160.928 104.288C159.698 104.416 158.455 104.245 157.305 103.789C155.765 103.192 154.331 102.351 153.058 101.299C153.044 101.251 152.511 100.844 152.463 100.797L153.413 101.599C154.783 102.74 156.331 103.649 157.995 104.291C159.226 104.773 160.554 104.953 161.869 104.815C162.911 104.689 163.879 104.21 164.61 103.456C165.352 102.629 165.83 101.6 165.985 100.5C166.176 99.1891 166.129 97.8548 165.846 96.5608V96.5608Z" fill="url(#paint1_linear_12_493)"/>
<path d="M142.127 79.9372C142.847 78.6841 144.001 77.7384 145.371 77.2791C146.765 76.8476 148.247 76.7855 149.673 77.099C151.361 77.4522 152.982 78.0723 154.475 78.936C156.217 79.9407 157.838 81.1412 159.308 82.5142C160.861 83.9537 162.272 85.5402 163.52 87.2515C164.717 88.8879 165.756 90.6346 166.622 92.4679C167.444 94.1805 168.067 95.9817 168.479 97.8361C168.869 99.5218 168.963 101.262 168.759 102.98C168.607 104.446 168.04 105.838 167.125 106.994C166.233 108.051 164.999 108.763 163.638 109.007C161.926 109.291 160.171 109.127 158.542 108.532C156.291 107.738 154.193 106.565 152.338 105.063C147.996 101.601 144.619 97.0781 142.532 91.9314C141.655 89.7919 141.145 87.5199 141.024 85.2109C140.885 83.3841 141.268 81.5554 142.127 79.9372V79.9372ZM145.661 82.9859C145.092 84.2264 144.861 85.595 144.99 86.9537C145.122 88.6669 145.53 90.3475 146.197 91.9312C146.958 93.773 147.942 95.5149 149.126 97.1183C150.35 98.7883 151.785 100.293 153.395 101.596C154.765 102.737 156.313 103.646 157.977 104.287C159.208 104.77 160.536 104.95 161.851 104.811C162.893 104.686 163.861 104.206 164.592 103.453C165.334 102.626 165.812 101.597 165.967 100.496C166.163 99.1851 166.122 97.8492 165.845 96.5527C165.542 95.1058 165.071 93.6993 164.442 92.3617C163.053 89.4005 161.095 86.7418 158.679 84.5375C157.531 83.478 156.26 82.5601 154.894 81.8034C153.747 81.1641 152.501 80.7219 151.207 80.4953C150.12 80.2923 148.998 80.3955 147.966 80.7935C146.953 81.2131 146.131 81.9945 145.661 82.9859V82.9859Z" fill="url(#paint2_linear_12_493)"/>
<path d="M141.451 79.023C141.543 78.8982 141.641 78.7834 141.745 78.6786L142.065 78.3619C142.065 78.3619 139.034 81.2209 138.936 81.3356C138.838 81.4504 138.73 81.5594 138.626 81.6846L138.343 82.0692L138.067 82.4781L140.922 79.7993L141.174 79.3973L141.451 79.023Z" fill="#FFF2DD"/>
<path d="M162.796 110.22C161.7 110.343 160.591 110.289 159.513 110.06C158.176 109.781 156.88 109.334 155.655 108.73C154.184 107.993 152.791 107.109 151.497 106.093C149.169 104.266 147.101 102.13 145.349 99.744C143.642 97.4573 142.247 94.9539 141.199 92.2994C140.285 90.0551 139.763 87.6699 139.659 85.2487C139.547 83.3555 139.974 81.4695 140.889 79.8085L138.033 82.4872C137.089 84.1479 136.62 86.0362 136.678 87.9455C136.725 90.3332 137.198 92.6934 138.074 94.9153C139.067 97.5168 140.417 99.9682 142.083 102.2C143.813 104.513 145.86 106.572 148.164 108.315C149.452 109.296 150.839 110.138 152.304 110.827C153.525 111.402 154.813 111.821 156.139 112.075C157.238 112.283 158.363 112.312 159.471 112.161C160.422 112.031 161.339 111.716 162.168 111.233L165.439 109.316C164.63 109.796 163.73 110.103 162.796 110.22Z" fill="url(#paint3_linear_12_493)"/>
<path d="M168.886 101.49L168.867 101.975C168.859 102.134 168.852 102.292 168.834 102.445C168.817 102.598 168.801 102.759 168.775 102.915C168.624 104.381 168.057 105.773 167.142 106.928C166.25 107.985 165.016 108.697 163.654 108.941C161.943 109.225 160.188 109.062 158.559 108.467C156.308 107.672 154.21 106.499 152.355 104.998C148.013 101.535 144.636 97.0126 142.549 91.8658C141.672 89.7264 141.162 87.4544 141.041 85.1454C140.926 83.3377 141.321 81.5342 142.181 79.9397C142.606 79.1913 143.184 78.5412 143.878 78.0321C144.534 77.5621 145.278 77.2303 146.066 77.0567C146.905 76.8627 147.77 76.8033 148.628 76.8809C149.549 76.9641 150.457 77.1511 151.336 77.4384L150.649 77.2236C149.724 76.9183 148.768 76.7184 147.799 76.6277C146.912 76.5474 146.018 76.6035 145.148 76.7941C144.287 76.9766 143.475 77.3375 142.763 77.8537C142.052 78.3698 141.456 79.0295 141.015 79.7903C140.1 81.4514 139.674 83.3374 139.785 85.2305C139.89 87.6518 140.411 90.0369 141.326 92.2812C142.373 94.9357 143.769 97.4392 145.476 99.7258C147.227 102.112 149.295 104.247 151.623 106.075C153.575 107.649 155.788 108.867 158.16 109.676C159.875 110.278 161.716 110.427 163.505 110.106C164.937 109.826 166.227 109.058 167.156 107.934C168.108 106.714 168.696 105.25 168.853 103.711C168.876 103.548 168.9 103.384 168.913 103.215C168.926 103.046 168.941 102.885 168.949 102.726C168.956 102.568 168.967 102.39 168.97 102.216C168.972 102.041 168.972 101.884 168.966 101.712C168.961 101.539 168.956 101.244 168.959 101.009L168.886 101.49Z" fill="url(#paint4_linear_12_493)"/>
<path d="M161.41 97.3976L162.984 99.2073L161.851 100.189L160.353 98.4624C159.458 99.0609 158.366 99.2915 157.306 99.1064L155.492 95.7714C155.966 95.8761 156.456 95.8803 156.931 95.7835C157.406 95.6867 157.855 95.4911 158.25 95.2095C158.788 94.7438 158.78 94.3457 158.443 93.9536C157.181 92.5693 155.106 96.3767 151.405 92.1217C149.806 90.2843 149.111 88.1653 150.094 86.6515L148.532 84.9166L149.665 83.9348L151.184 85.673C151.931 85.2365 152.805 85.0692 153.661 85.1989L155.511 88.4799C155.115 88.4056 154.707 88.4123 154.313 88.4998C153.918 88.5873 153.546 88.7537 153.218 88.989C153.106 89.0582 153.013 89.1527 152.944 89.2647C152.876 89.3768 152.835 89.5034 152.824 89.6343C152.814 89.7652 152.834 89.8967 152.884 90.0182C152.934 90.1397 153.011 90.2478 153.111 90.3338C154.316 91.734 156.409 87.8691 160.06 92.0687C161.552 93.8057 162.26 95.8777 161.41 97.3976Z" fill="url(#paint5_linear_12_493)"/>
<path d="M161.734 97.3756L163.305 99.1773L162.183 100.165L160.677 98.4405C159.782 99.0389 158.69 99.2695 157.629 99.0844L155.816 95.7494C156.289 95.8542 156.78 95.8583 157.255 95.7615C157.73 95.6647 158.179 95.4692 158.574 95.1875C159.104 94.7242 159.096 94.326 158.759 93.9339C157.486 92.5093 155.42 96.3489 151.721 92.102C150.122 90.2646 149.427 88.1456 150.418 86.6295L148.871 84.8555L149.996 83.876L151.515 85.6142C152.262 85.1771 153.136 85.0097 153.992 85.1402L155.848 88.4108C155.45 88.34 155.041 88.3495 154.646 88.4387C154.251 88.5279 153.878 88.695 153.549 88.9303C153.438 89.0002 153.346 89.0951 153.278 89.2073C153.211 89.3196 153.171 89.446 153.161 89.5765C153.151 89.707 153.173 89.838 153.223 89.9589C153.273 90.0798 153.35 90.1873 153.45 90.2728C154.647 91.6753 156.74 87.8104 160.399 92.0077C161.884 93.7815 162.592 95.8534 161.734 97.3756Z" fill="url(#paint6_linear_12_493)"/>
<path d="M163.437 110.177L161.686 111.282C161.666 111.296 161.651 111.317 161.645 111.341C161.639 111.365 161.642 111.391 161.654 111.413C161.664 111.425 161.676 111.434 161.69 111.441C161.704 111.447 161.719 111.451 161.734 111.451L161.783 111.437L163.534 110.333C163.554 110.319 163.569 110.298 163.575 110.274C163.581 110.25 163.578 110.224 163.566 110.202C163.559 110.192 163.551 110.183 163.54 110.176C163.53 110.17 163.519 110.165 163.507 110.163C163.495 110.161 163.483 110.161 163.471 110.163C163.459 110.166 163.447 110.171 163.437 110.177V110.177Z" fill="#ED942C"/>
<path d="M162.758 110.361L160.994 111.512C160.983 111.519 160.973 111.527 160.966 111.537C160.958 111.547 160.952 111.559 160.949 111.571C160.946 111.583 160.946 111.596 160.948 111.608C160.95 111.621 160.954 111.633 160.961 111.643C160.971 111.658 160.985 111.67 161.001 111.678C161.017 111.685 161.035 111.689 161.052 111.687C161.052 111.687 161.052 111.687 161.101 111.674L162.864 110.522C162.875 110.516 162.885 110.508 162.893 110.498C162.9 110.488 162.906 110.476 162.909 110.464C162.912 110.452 162.913 110.439 162.911 110.426C162.908 110.414 162.904 110.402 162.897 110.391C162.89 110.38 162.88 110.37 162.87 110.363C162.859 110.355 162.846 110.35 162.834 110.347C162.821 110.344 162.807 110.344 162.794 110.346C162.781 110.349 162.769 110.354 162.758 110.361V110.361Z" fill="#EA9129"/>
<path d="M162.008 110.512L160.219 111.696C160.208 111.704 160.199 111.713 160.191 111.724C160.184 111.735 160.178 111.747 160.175 111.76C160.173 111.773 160.172 111.786 160.175 111.799C160.177 111.812 160.182 111.824 160.189 111.836C160.199 111.85 160.213 111.862 160.229 111.87C160.245 111.877 160.262 111.881 160.28 111.88C160.288 111.882 160.297 111.882 160.306 111.879C160.314 111.877 160.322 111.872 160.328 111.866L162.117 110.681C162.129 110.674 162.14 110.664 162.148 110.652C162.156 110.641 162.162 110.628 162.164 110.614C162.167 110.6 162.167 110.586 162.163 110.572C162.16 110.558 162.154 110.545 162.145 110.534C162.138 110.523 162.129 110.513 162.118 110.506C162.107 110.499 162.095 110.494 162.082 110.492C162.069 110.49 162.056 110.49 162.043 110.494C162.03 110.497 162.019 110.503 162.008 110.512V110.512Z" fill="#E88F27"/>
<path d="M161.172 110.6L159.368 111.824C159.356 111.831 159.345 111.841 159.337 111.853C159.329 111.864 159.324 111.878 159.321 111.891C159.318 111.905 159.319 111.92 159.322 111.933C159.325 111.947 159.331 111.96 159.34 111.971C159.349 111.988 159.362 112.001 159.379 112.011C159.395 112.02 159.414 112.024 159.433 112.023L159.489 112.007L161.293 110.784C161.309 110.778 161.323 110.768 161.334 110.756C161.345 110.745 161.354 110.73 161.358 110.714C161.363 110.699 161.365 110.682 161.362 110.666C161.36 110.65 161.354 110.634 161.345 110.621C161.335 110.607 161.323 110.596 161.309 110.587C161.295 110.579 161.279 110.574 161.262 110.573C161.246 110.572 161.23 110.575 161.214 110.581C161.199 110.587 161.185 110.596 161.174 110.608L161.172 110.6Z" fill="#E58C24"/>
<path d="M160.262 110.614L158.434 111.879C158.422 111.887 158.412 111.898 158.404 111.911C158.396 111.923 158.391 111.937 158.388 111.951C158.386 111.966 158.386 111.981 158.39 111.995C158.393 112.009 158.4 112.023 158.409 112.034C158.419 112.051 158.434 112.065 158.452 112.073C158.47 112.082 158.49 112.086 158.51 112.084C158.52 112.085 158.53 112.085 158.539 112.082C158.549 112.079 158.558 112.075 158.566 112.068L160.393 110.803C160.405 110.795 160.416 110.784 160.424 110.772C160.432 110.759 160.437 110.745 160.439 110.731C160.442 110.716 160.441 110.702 160.438 110.687C160.434 110.673 160.428 110.66 160.419 110.648C160.411 110.635 160.401 110.623 160.389 110.614C160.377 110.605 160.363 110.599 160.348 110.596C160.333 110.593 160.318 110.593 160.303 110.596C160.288 110.599 160.274 110.605 160.262 110.614V110.614Z" fill="#E38921"/>
<path d="M159.26 110.549L157.418 111.853C157.393 111.872 157.377 111.899 157.373 111.93C157.368 111.961 157.376 111.992 157.394 112.017C157.405 112.033 157.42 112.047 157.438 112.056C157.456 112.064 157.476 112.068 157.496 112.066C157.519 112.069 157.542 112.062 157.56 112.048L159.402 110.744C159.427 110.725 159.444 110.698 159.45 110.667C159.456 110.636 159.45 110.605 159.434 110.578C159.415 110.552 159.386 110.534 159.353 110.528C159.321 110.523 159.287 110.53 159.26 110.549V110.549Z" fill="#E0871E"/>
<path d="M158.228 110.379L156.368 111.715C156.354 111.723 156.342 111.735 156.333 111.749C156.323 111.763 156.317 111.778 156.314 111.795C156.312 111.811 156.312 111.828 156.317 111.844C156.321 111.86 156.329 111.875 156.339 111.888C156.352 111.906 156.369 111.92 156.388 111.93C156.407 111.94 156.429 111.944 156.451 111.944L156.515 111.926L158.375 110.59C158.401 110.569 158.419 110.539 158.424 110.505C158.429 110.471 158.421 110.437 158.402 110.409C158.382 110.382 158.353 110.364 158.321 110.358C158.288 110.353 158.255 110.361 158.228 110.379V110.379Z" fill="#DE841C"/>
<path d="M157.109 110.086L155.233 111.487C155.219 111.498 155.207 111.511 155.198 111.527C155.189 111.542 155.183 111.559 155.181 111.577C155.179 111.594 155.18 111.612 155.185 111.63C155.189 111.647 155.197 111.663 155.208 111.677C155.221 111.694 155.237 111.707 155.256 111.715C155.276 111.724 155.297 111.727 155.318 111.724L155.398 111.701L157.266 110.303C157.293 110.28 157.311 110.248 157.315 110.213C157.32 110.178 157.311 110.142 157.291 110.113C157.27 110.086 157.239 110.069 157.205 110.064C157.172 110.059 157.137 110.067 157.109 110.086Z" fill="#DB8119"/>
<path d="M155.922 109.673L154.03 111.079C154.015 111.09 154.002 111.104 153.992 111.12C153.982 111.136 153.976 111.154 153.973 111.172C153.97 111.191 153.971 111.21 153.976 111.228C153.98 111.247 153.988 111.264 153.999 111.279C154.014 111.297 154.032 111.311 154.053 111.32C154.074 111.329 154.096 111.333 154.119 111.332L154.2 111.309L156.092 109.904C156.107 109.894 156.12 109.881 156.13 109.865C156.14 109.85 156.146 109.833 156.149 109.815C156.153 109.797 156.152 109.779 156.148 109.761C156.143 109.743 156.135 109.726 156.124 109.712C156.115 109.695 156.102 109.68 156.086 109.668C156.07 109.657 156.052 109.649 156.032 109.645C156.013 109.641 155.993 109.642 155.974 109.647C155.955 109.652 155.937 109.661 155.922 109.673V109.673Z" fill="#D97F16"/>
<path d="M154.68 109.102L152.767 110.556C152.752 110.568 152.739 110.582 152.729 110.598C152.72 110.614 152.713 110.632 152.71 110.65C152.707 110.669 152.708 110.688 152.713 110.706C152.717 110.724 152.726 110.741 152.737 110.757C152.751 110.774 152.769 110.788 152.79 110.798C152.811 110.807 152.834 110.811 152.856 110.81C152.871 110.812 152.885 110.811 152.899 110.807C152.913 110.803 152.926 110.796 152.937 110.787L154.869 109.37C154.896 109.346 154.914 109.312 154.918 109.276C154.922 109.239 154.913 109.202 154.892 109.172C154.883 109.153 154.871 109.136 154.855 109.122C154.84 109.108 154.822 109.097 154.802 109.09C154.782 109.084 154.761 109.081 154.74 109.083C154.719 109.085 154.699 109.091 154.68 109.102V109.102Z" fill="#D67C13"/>
<path d="M153.419 108.361L151.483 109.858C151.452 109.882 151.432 109.917 151.427 109.956C151.421 109.995 151.431 110.034 151.455 110.066C151.471 110.083 151.491 110.097 151.513 110.106C151.535 110.114 151.559 110.118 151.582 110.117C151.598 110.119 151.614 110.118 151.629 110.113C151.644 110.109 151.659 110.102 151.671 110.092L153.601 108.606C153.63 108.58 153.649 108.545 153.655 108.507C153.66 108.469 153.651 108.43 153.629 108.398C153.618 108.381 153.604 108.368 153.587 108.357C153.57 108.346 153.551 108.339 153.532 108.336C153.512 108.332 153.492 108.333 153.473 108.337C153.453 108.342 153.435 108.35 153.419 108.361V108.361Z" fill="#D37910"/>
<path d="M152.008 107.437L150.055 108.964C150.024 108.99 150.004 109.027 149.999 109.067C149.994 109.107 150.005 109.148 150.029 109.18C150.043 109.202 150.062 109.218 150.085 109.229C150.108 109.239 150.134 109.243 150.159 109.24C150.175 109.242 150.191 109.24 150.206 109.236C150.221 109.232 150.235 109.224 150.248 109.214L152.201 107.687C152.233 107.662 152.254 107.625 152.259 107.585C152.264 107.544 152.252 107.503 152.227 107.471C152.202 107.439 152.165 107.418 152.124 107.413C152.084 107.408 152.043 107.42 152.011 107.445L152.008 107.437Z" fill="#D1760E"/>
<path d="M150.601 106.372L148.633 107.938C148.617 107.952 148.603 107.968 148.593 107.986C148.583 108.005 148.577 108.025 148.575 108.046C148.572 108.066 148.574 108.088 148.58 108.108C148.586 108.128 148.596 108.146 148.609 108.163C148.625 108.183 148.645 108.2 148.668 108.212C148.69 108.223 148.716 108.23 148.741 108.23L148.838 108.202L150.807 106.636C150.84 106.608 150.86 106.568 150.864 106.524C150.868 106.481 150.855 106.438 150.828 106.404C150.801 106.371 150.763 106.349 150.721 106.343C150.679 106.337 150.636 106.348 150.601 106.372Z" fill="#CE740B"/>
<path d="M149.137 105.071L147.153 106.677C147.118 106.704 147.096 106.744 147.09 106.788C147.085 106.832 147.097 106.876 147.124 106.911C147.141 106.931 147.162 106.947 147.186 106.957C147.21 106.967 147.236 106.971 147.262 106.968C147.296 106.971 147.331 106.961 147.359 106.941L149.352 105.341C149.386 105.313 149.406 105.273 149.41 105.229C149.414 105.186 149.401 105.143 149.374 105.109C149.362 105.09 149.346 105.073 149.327 105.061C149.308 105.048 149.286 105.04 149.264 105.036C149.241 105.033 149.218 105.034 149.197 105.04C149.175 105.046 149.154 105.057 149.137 105.071V105.071Z" fill="#CC7108"/>
<path d="M147.628 103.549L145.621 105.195C145.604 105.21 145.589 105.227 145.579 105.247C145.569 105.267 145.562 105.289 145.561 105.311C145.559 105.334 145.562 105.356 145.569 105.378C145.576 105.399 145.587 105.419 145.602 105.436C145.618 105.456 145.639 105.472 145.663 105.482C145.688 105.492 145.714 105.496 145.74 105.492C145.777 105.495 145.814 105.484 145.845 105.463L147.846 103.826C147.881 103.797 147.903 103.756 147.908 103.711C147.913 103.665 147.901 103.62 147.873 103.584C147.86 103.564 147.843 103.548 147.823 103.536C147.803 103.523 147.781 103.515 147.758 103.512C147.735 103.509 147.712 103.51 147.689 103.517C147.667 103.523 147.646 103.534 147.628 103.549V103.549Z" fill="#C96E06"/>
<path d="M146.067 101.787L144.045 103.473C144.027 103.487 144.012 103.506 144.001 103.526C143.989 103.547 143.982 103.57 143.98 103.593C143.978 103.616 143.98 103.64 143.987 103.662C143.994 103.685 144.005 103.706 144.021 103.724C144.06 103.763 144.113 103.785 144.169 103.786C144.206 103.788 144.243 103.778 144.274 103.756L146.298 102.079C146.334 102.049 146.357 102.006 146.362 101.959C146.367 101.912 146.352 101.865 146.322 101.828C146.293 101.791 146.249 101.768 146.202 101.764C146.155 101.759 146.108 101.773 146.072 101.803L146.067 101.787Z" fill="#C76C03"/>
<path d="M144.47 99.7749L142.423 101.494C142.386 101.525 142.363 101.57 142.359 101.619C142.354 101.667 142.369 101.715 142.401 101.753C142.419 101.775 142.442 101.792 142.468 101.804C142.494 101.817 142.523 101.823 142.551 101.823C142.591 101.825 142.631 101.814 142.664 101.791L144.711 100.072C144.744 100.04 144.764 99.9961 144.766 99.9498C144.768 99.9035 144.753 99.858 144.723 99.8225C144.693 99.787 144.651 99.764 144.605 99.7582C144.559 99.7523 144.513 99.7641 144.475 99.791L144.47 99.7749Z" fill="#C46900"/>
<path d="M143.006 97.795L141.003 99.4843C140.968 99.5168 140.946 99.5618 140.944 99.6097C140.941 99.6576 140.957 99.7046 140.989 99.7409C141.005 99.7609 141.026 99.7765 141.05 99.7864C141.074 99.7963 141.101 99.8002 141.126 99.7977C141.166 99.799 141.206 99.7879 141.239 99.7657L143.235 98.0787C143.271 98.0488 143.294 98.0055 143.299 97.9585C143.304 97.9115 143.289 97.8645 143.259 97.828C143.229 97.7914 143.186 97.7683 143.139 97.7636C143.092 97.7589 143.045 97.7731 143.009 97.8031L143.006 97.795Z" fill="#C8710C"/>
<path d="M141.78 95.8611L139.829 97.5183C139.794 97.5491 139.772 97.5922 139.767 97.6388C139.762 97.6853 139.776 97.7319 139.804 97.7691C139.823 97.7887 139.845 97.8039 139.871 97.8134C139.896 97.8228 139.923 97.8263 139.95 97.8235C139.987 97.8256 140.024 97.8152 140.055 97.7939L142.004 96.1286C142.021 96.1143 142.036 96.0967 142.046 96.0767C142.057 96.0568 142.063 96.0349 142.065 96.0125C142.066 95.99 142.064 95.9675 142.057 95.9461C142.049 95.9248 142.038 95.9051 142.023 95.8882C142.009 95.8699 141.992 95.8546 141.972 95.8432C141.952 95.8319 141.93 95.8247 141.908 95.8221C141.885 95.8196 141.862 95.8217 141.84 95.8284C141.818 95.8351 141.798 95.8462 141.78 95.8611V95.8611Z" fill="#CB7918"/>
<path d="M140.803 94.0654L138.898 95.7009C138.865 95.7292 138.844 95.7693 138.84 95.8127C138.836 95.8561 138.849 95.8993 138.877 95.9332C138.893 95.9532 138.915 95.9689 138.939 95.9788C138.963 95.9887 138.989 95.9925 139.015 95.99C139.049 95.993 139.083 95.9832 139.111 95.9627L141.025 94.3249C141.041 94.31 141.055 94.2921 141.064 94.272C141.074 94.252 141.079 94.2303 141.08 94.2081C141.081 94.186 141.078 94.1638 141.07 94.143C141.062 94.1221 141.051 94.1031 141.036 94.0868C141.022 94.0694 141.006 94.055 140.986 94.0444C140.967 94.0339 140.946 94.0274 140.924 94.0254C140.902 94.0234 140.88 94.0259 140.86 94.0328C140.839 94.0397 140.82 94.0508 140.803 94.0654V94.0654Z" fill="#CF8124"/>
<path d="M140.029 92.3168L138.172 93.9386C138.156 93.9516 138.143 93.9679 138.133 93.9864C138.123 94.0049 138.117 94.0253 138.116 94.0462C138.114 94.0671 138.117 94.088 138.124 94.1077C138.131 94.1274 138.142 94.1454 138.157 94.1606C138.171 94.1817 138.19 94.1984 138.213 94.2089C138.236 94.2193 138.262 94.223 138.287 94.2197C138.321 94.2226 138.356 94.2129 138.383 94.1923L140.243 92.5786C140.262 92.5663 140.279 92.55 140.291 92.5308C140.303 92.5115 140.312 92.4898 140.315 92.4672C140.318 92.4445 140.317 92.4214 140.31 92.3994C140.304 92.3774 140.293 92.3571 140.278 92.3398C140.263 92.3226 140.244 92.3087 140.223 92.2993C140.202 92.2898 140.18 92.285 140.157 92.2851C140.134 92.2852 140.111 92.2902 140.09 92.2999C140.07 92.3095 140.051 92.3235 140.036 92.341L140.029 92.3168Z" fill="#D38931"/>
<path d="M139.464 90.6836L137.648 92.2675C137.633 92.2803 137.62 92.296 137.611 92.3138C137.602 92.3315 137.596 92.3509 137.595 92.3708C137.593 92.3907 137.595 92.4107 137.601 92.4297C137.607 92.4487 137.617 92.4663 137.63 92.4815C137.643 92.5005 137.662 92.5155 137.683 92.5249C137.704 92.5343 137.727 92.5377 137.75 92.5348C137.784 92.5385 137.819 92.5287 137.847 92.5074L139.662 90.9235C139.678 90.9114 139.692 90.896 139.702 90.8782C139.712 90.8605 139.718 90.8408 139.72 90.8205C139.721 90.8002 139.719 90.7798 139.712 90.7607C139.705 90.7415 139.694 90.7241 139.68 90.7095C139.668 90.6932 139.652 90.6796 139.635 90.6694C139.617 90.6593 139.598 90.6528 139.577 90.6504C139.557 90.6479 139.537 90.6496 139.517 90.6553C139.498 90.6611 139.479 90.6706 139.464 90.6836V90.6836Z" fill="#D6903D"/>
<path d="M139.073 89.1486L137.301 90.7027C137.272 90.7297 137.254 90.7667 137.251 90.8063C137.248 90.8459 137.259 90.8852 137.283 90.9167C137.298 90.9335 137.317 90.947 137.337 90.9562C137.358 90.9654 137.38 90.9701 137.403 90.97C137.437 90.9688 137.47 90.9594 137.5 90.9426L139.271 89.3885C139.287 89.3758 139.299 89.36 139.308 89.3422C139.317 89.3243 139.323 89.3048 139.323 89.2848C139.324 89.2648 139.321 89.2449 139.314 89.2263C139.307 89.2077 139.295 89.1908 139.281 89.1768C139.27 89.1605 139.255 89.1468 139.239 89.1365C139.222 89.1262 139.203 89.1195 139.183 89.1168C139.164 89.1142 139.144 89.1156 139.125 89.1211C139.106 89.1266 139.088 89.1359 139.073 89.1486Z" fill="#DA9849"/>
<path d="M138.874 87.7076L137.149 89.24C137.122 89.2663 137.105 89.3018 137.103 89.3395C137.101 89.3772 137.113 89.4144 137.137 89.4437C137.151 89.4602 137.169 89.473 137.19 89.4809C137.21 89.4888 137.232 89.4915 137.254 89.4889C137.285 89.4882 137.316 89.4795 137.343 89.4638L139.068 87.9314C139.095 87.9068 139.112 87.8728 139.114 87.8365C139.117 87.8001 139.106 87.764 139.083 87.7358C139.058 87.705 139.023 87.6848 138.984 87.6795C138.945 87.6742 138.906 87.6843 138.874 87.7076V87.7076Z" fill="#DEA055"/>
<path d="M138.755 86.3921L137.071 87.8866C137.057 87.8987 137.046 87.9134 137.039 87.9297C137.031 87.9461 137.027 87.9639 137.026 87.9819C137.026 88 137.029 88.018 137.035 88.0348C137.042 88.0516 137.052 88.067 137.064 88.0799C137.089 88.1069 137.123 88.1234 137.159 88.1261C137.196 88.1288 137.232 88.1174 137.26 88.0943L138.934 86.5939C138.948 86.5824 138.96 86.568 138.968 86.5517C138.977 86.5355 138.982 86.5176 138.983 86.4992C138.985 86.4809 138.982 86.4625 138.976 86.4451C138.97 86.4278 138.96 86.4118 138.948 86.3983C138.936 86.3849 138.921 86.3741 138.905 86.3664C138.888 86.3588 138.871 86.3546 138.853 86.354C138.835 86.3534 138.817 86.3565 138.8 86.363C138.783 86.3696 138.767 86.3794 138.755 86.3921V86.3921Z" fill="#E2A861"/>
<path d="M138.788 85.1554L137.15 86.6282C137.125 86.652 137.11 86.6846 137.109 86.7191C137.107 86.7536 137.119 86.7874 137.142 86.8134C137.154 86.8304 137.17 86.8437 137.19 86.8521C137.209 86.8604 137.23 86.8635 137.251 86.8609C137.279 86.8616 137.307 86.8536 137.331 86.8381L138.969 85.3653C138.996 85.3415 139.012 85.3082 139.014 85.2725C139.017 85.2367 139.004 85.2016 138.981 85.1749C138.957 85.1481 138.924 85.1319 138.888 85.1297C138.852 85.1276 138.817 85.1397 138.79 85.1634L138.788 85.1554Z" fill="#E5B06D"/>
<path d="M138.93 84.0269L137.368 85.4609C137.345 85.484 137.331 85.5148 137.329 85.5474C137.327 85.58 137.337 85.6122 137.358 85.638C137.37 85.6514 137.386 85.662 137.403 85.6692C137.42 85.6764 137.438 85.6799 137.456 85.6797C137.485 85.6809 137.513 85.6729 137.537 85.6569L139.129 84.2058C139.152 84.1827 139.166 84.1519 139.168 84.1193C139.17 84.0867 139.16 84.0544 139.14 84.0286C139.127 84.0128 139.112 84 139.093 83.9911C139.075 83.9823 139.056 83.9776 139.035 83.9774C139.015 83.9773 138.995 83.9816 138.977 83.9902C138.959 83.9988 138.943 84.0113 138.93 84.0269V84.0269Z" fill="#E9B879"/>
<path d="M139.156 83.0057L137.608 84.4271C137.596 84.4376 137.587 84.4503 137.581 84.4645C137.574 84.4786 137.571 84.4939 137.57 84.5094C137.57 84.5249 137.572 84.5404 137.578 84.5549C137.584 84.5694 137.592 84.5827 137.603 84.5939C137.612 84.6082 137.625 84.6193 137.641 84.6257C137.657 84.6321 137.675 84.6335 137.691 84.6298C137.705 84.632 137.72 84.6311 137.734 84.6272C137.748 84.6233 137.761 84.6164 137.772 84.607L139.331 83.165C139.355 83.1419 139.368 83.1111 139.37 83.0785C139.372 83.0459 139.362 83.0136 139.342 82.9879C139.33 82.9745 139.315 82.9641 139.298 82.9576C139.281 82.9511 139.263 82.9486 139.245 82.9503C139.227 82.9521 139.209 82.958 139.194 82.9676C139.178 82.9772 139.165 82.9903 139.156 83.0057V83.0057Z" fill="#EDC085"/>
<path d="M139.437 82.0906L137.941 83.4798C137.929 83.4895 137.92 83.5014 137.913 83.5148C137.907 83.5282 137.903 83.5427 137.902 83.5576C137.902 83.5725 137.904 83.5874 137.909 83.6013C137.915 83.6152 137.923 83.6279 137.933 83.6386C137.944 83.6509 137.958 83.6605 137.973 83.6668C137.989 83.673 138.005 83.6756 138.022 83.6745C138.035 83.677 138.048 83.6764 138.06 83.6729C138.073 83.6693 138.085 83.6629 138.094 83.654L139.587 82.2222C139.598 82.2125 139.608 82.2006 139.614 82.1872C139.621 82.1738 139.625 82.1593 139.625 82.1444C139.626 82.1295 139.624 82.1146 139.618 82.1007C139.613 82.0868 139.605 82.0741 139.594 82.0634C139.57 82.0471 139.54 82.0409 139.51 82.0459C139.481 82.0509 139.455 82.0669 139.437 82.0906V82.0906Z" fill="#F0C892"/>
<path d="M139.778 81.2977L138.328 82.6652C138.307 82.6842 138.294 82.7105 138.293 82.7386C138.291 82.7667 138.3 82.7944 138.318 82.8159C138.329 82.8282 138.343 82.8379 138.358 82.8441C138.374 82.8503 138.39 82.853 138.407 82.8518C138.432 82.8532 138.458 82.846 138.479 82.8313L139.932 81.4719C139.953 81.4512 139.965 81.4233 139.966 81.3939C139.968 81.3645 139.958 81.3357 139.939 81.3131C139.919 81.2904 139.891 81.2761 139.862 81.2732C139.832 81.2703 139.802 81.2791 139.778 81.2977V81.2977Z" fill="#F4CF9E"/>
<path d="M140.138 80.5692L138.772 81.8956C138.751 81.9146 138.738 81.9409 138.736 81.969C138.735 81.9971 138.744 82.0248 138.762 82.0463C138.784 82.0644 138.812 82.075 138.84 82.0764C138.866 82.0777 138.891 82.0705 138.913 82.0559L140.279 80.7296C140.289 80.721 140.297 80.7106 140.304 80.6987C140.31 80.6869 140.313 80.674 140.315 80.6607C140.316 80.6475 140.314 80.6341 140.31 80.6214C140.306 80.6088 140.299 80.597 140.291 80.5869C140.272 80.566 140.246 80.5527 140.217 80.5495C140.189 80.5462 140.161 80.5532 140.138 80.5692Z" fill="#F8D7AA"/>
<path d="M140.511 79.9765L139.14 81.2867C139.129 81.3089 139.127 81.3343 139.134 81.3581C139.14 81.3819 139.156 81.4024 139.177 81.4157C139.187 81.426 139.199 81.434 139.212 81.4392C139.226 81.4444 139.24 81.4467 139.255 81.4458L139.319 81.4276L140.69 80.1174C140.704 80.0984 140.712 80.0748 140.711 80.0509C140.709 80.027 140.7 80.0043 140.683 79.9869C140.667 79.9695 140.645 79.9586 140.621 79.9561C140.597 79.9535 140.573 79.9596 140.553 79.9731L140.511 79.9765Z" fill="#FBDFB6"/>
<path d="M140.903 79.4828L139.53 80.785C139.519 80.8057 139.517 80.8297 139.523 80.8521C139.53 80.8746 139.544 80.8938 139.564 80.9059C139.583 80.9214 139.607 80.93 139.632 80.9302C139.642 80.9315 139.652 80.9307 139.662 80.928C139.672 80.9252 139.681 80.9206 139.689 80.9143L141.024 79.6661C141.035 79.6454 141.038 79.6214 141.031 79.5989C141.025 79.5765 141.01 79.5573 140.99 79.5452C140.984 79.527 140.972 79.5112 140.957 79.5C140.941 79.4888 140.922 79.4828 140.903 79.4828V79.4828Z" fill="#FFE7C2"/>
<path d="M61.8288 114.442C68.8106 115.767 70.1468 123.511 64.8148 131.747C59.4829 139.984 49.4891 145.586 42.4993 144.263C35.5095 142.94 34.179 135.185 39.5213 126.955C44.8636 118.724 54.8539 113.141 61.8288 114.442ZM52.2387 129.201C52.1906 129.199 52.1429 129.211 52.1005 129.233C52.0581 129.256 52.0223 129.289 51.9967 129.33C51.9446 129.423 51.9594 129.506 52.0491 129.515C52.0962 129.515 52.1424 129.503 52.183 129.479C52.2237 129.455 52.2574 129.421 52.2807 129.38C52.3592 129.288 52.3445 129.206 52.2387 129.201Z" fill="url(#paint7_linear_12_493)"/>
<path d="M61.9181 112.632C54.4108 111.203 43.6817 117.222 37.9477 126.068C32.2137 134.914 33.6552 143.246 41.1522 144.67C44.3067 145.267 48.0206 144.547 51.6992 142.872L52.3145 142.585C48.8927 144.153 45.4333 144.818 42.4996 144.263C35.5178 142.937 34.1793 135.185 39.5216 126.955C44.8638 118.724 54.8473 113.116 61.8291 114.442C68.59 115.725 70.061 123.022 65.3052 130.956L65.6554 130.378C70.7569 121.85 69.184 114.008 61.9181 112.632Z" fill="url(#paint8_linear_12_493)"/>
<path d="M51.6999 142.872L52.3151 142.585C57.3999 140.192 61.7256 136.442 64.8157 131.748L65.3058 130.956L65.6561 130.378L65.129 131.224C61.8091 136.268 57.1624 140.298 51.6999 142.872Z" fill="#828282"/>
<path d="M53.5538 154.143L52.7477 154.371C60.8443 151.603 69.2918 145.15 74.5764 136.962C75.4652 135.597 76.2611 134.174 76.9585 132.702L76.609 133.436C75.9482 134.842 75.1889 136.2 74.3367 137.5C69.3142 145.352 61.2841 151.496 53.5538 154.143Z" fill="url(#paint9_linear_12_493)"/>
<path d="M66.5436 107.225C62.7984 106.651 58.969 107.036 55.4128 108.343L54.6067 108.571C58.0073 107.318 61.6702 106.947 65.253 107.494C75.1604 109.376 77.0571 120.365 69.4868 132.046C61.9166 143.727 47.7474 151.711 37.8309 149.796C29.1401 148.153 26.6133 139.492 31.2252 129.509L30.8779 130.252C26.0046 140.726 28.6799 149.789 37.7639 151.53C48.1474 153.495 62.9953 145.172 70.9284 132.927C78.8615 120.682 76.9157 109.15 66.5436 107.225Z" fill="url(#paint10_linear_12_493)"/>
<path d="M34.9464 152.126L31.2953 148.049C33.0149 149.902 35.307 151.124 37.804 151.519C48.1875 153.484 63.0354 145.16 70.9685 132.915C76.7742 123.953 77.2664 115.379 73.0406 110.654L76.6917 114.732C80.9175 119.457 80.4495 128.024 74.6196 136.993C66.6865 149.238 51.8386 157.562 41.4551 155.596C38.9581 155.201 36.666 153.979 34.9464 152.126V152.126Z" fill="url(#paint11_linear_12_493)"/>
<path d="M65.2531 107.494C75.1605 109.376 77.0572 120.365 69.487 132.046C61.9167 143.727 47.7475 151.711 37.831 149.796C27.9145 147.881 26.036 136.957 33.5971 125.244C41.1583 113.531 55.3376 105.613 65.2531 107.494ZM61.9262 112.63C54.4188 111.201 43.6897 117.22 37.9557 126.066C32.2217 134.912 33.6632 143.244 41.1602 144.668C48.6572 146.091 59.4024 140.068 65.1364 131.221C70.8705 122.375 69.4231 114.053 61.9181 112.632L61.9262 112.63Z" fill="url(#paint12_linear_12_493)"/>
<path d="M55.4586 135.725L56.0739 137.901L53.3195 139.489L52.7293 137.402C51.0659 138.323 49.212 138.847 47.3124 138.933L47.8155 134.708C49.5178 134.672 51.1826 134.201 52.652 133.341C53.9623 132.587 54.3504 132.051 54.216 131.576C53.726 129.843 46.56 135.594 45.0601 130.473C44.4334 128.256 45.4744 125.472 48.5426 123.177L47.9387 121.041L50.6931 119.453L51.2879 121.557C52.6266 120.883 54.09 120.493 55.5864 120.411L55.1848 124.564C53.7423 124.624 52.3341 125.022 51.0738 125.726C49.7254 126.499 49.4118 127.145 49.552 127.61C50.0078 129.222 57.1839 123.538 58.6657 128.594C59.3041 130.729 58.3242 133.452 55.4586 135.725Z" fill="url(#paint13_linear_12_493)"/>
<path d="M55.1339 135.346L55.7515 137.531L52.9948 139.111L52.4069 137.031C50.7436 137.953 48.8896 138.477 46.9901 138.563L47.4851 134.34C49.1866 134.298 50.85 133.828 52.3215 132.973C53.6319 132.219 54.0177 131.675 53.8775 131.21C53.3875 129.477 46.2273 135.218 44.7296 130.105C44.1006 127.88 45.1359 125.107 48.2041 122.812L47.5979 120.667L50.3465 119.09L50.939 121.185C52.2768 120.516 53.7381 120.13 55.2318 120.05L54.8279 124.195C53.3854 124.255 51.9772 124.653 50.7169 125.357C49.3788 126.136 49.0629 126.773 49.1974 127.249C49.6532 128.861 56.8351 123.166 58.3111 128.233C58.9898 130.356 58.0076 133.071 55.1339 135.346Z" fill="url(#paint14_linear_12_493)"/>
<path d="M33.3043 149.979C33.2869 149.994 33.2726 150.013 33.2623 150.034C33.252 150.054 33.2459 150.077 33.2443 150.1C33.2428 150.123 33.2458 150.146 33.2532 150.168C33.2606 150.19 33.2723 150.21 33.2875 150.228L34.868 152.062C34.8856 152.082 34.9083 152.098 34.9338 152.108C34.9594 152.117 34.987 152.12 35.0139 152.116C35.0512 152.118 35.0881 152.108 35.1187 152.086C35.1521 152.055 35.1723 152.011 35.1755 151.965C35.1786 151.919 35.1643 151.874 35.1355 151.838L33.5551 150.004C33.5242 149.969 33.4812 149.947 33.4346 149.942C33.388 149.937 33.3414 149.951 33.3043 149.979Z" fill="#B37100"/>
<path d="M34.4135 150.762C34.3782 150.795 34.3569 150.84 34.3542 150.887C34.3515 150.935 34.3675 150.982 34.399 151.019L36.0322 152.916C36.0516 152.938 36.0759 152.954 36.1031 152.965C36.1303 152.975 36.1596 152.979 36.1885 152.976C36.2258 152.978 36.2627 152.968 36.2933 152.947C36.3108 152.931 36.325 152.913 36.3353 152.892C36.3456 152.871 36.3517 152.849 36.3533 152.826C36.3548 152.803 36.3518 152.78 36.3444 152.758C36.337 152.736 36.3254 152.716 36.3101 152.698L34.6769 150.801C34.6625 150.781 34.6441 150.763 34.6229 150.75C34.6017 150.737 34.5781 150.729 34.5535 150.725C34.5289 150.722 34.5038 150.723 34.4797 150.729C34.4557 150.736 34.4331 150.747 34.4135 150.762V150.762Z" fill="#B37001"/>
<path d="M35.6373 151.426C35.6001 151.457 35.5769 151.502 35.5726 151.551C35.5684 151.599 35.5835 151.648 35.6147 151.685L37.311 153.651C37.3304 153.673 37.3548 153.69 37.3819 153.7C37.4091 153.711 37.4384 153.715 37.4673 153.712C37.5029 153.712 37.5378 153.702 37.5674 153.682C37.5971 153.663 37.62 153.635 37.6333 153.602C37.6466 153.569 37.6496 153.532 37.6419 153.498C37.6342 153.463 37.6161 153.431 37.5901 153.407L35.9019 151.438C35.8856 151.42 35.8657 151.405 35.8434 151.394C35.8211 151.383 35.7969 151.377 35.7722 151.376C35.7475 151.375 35.7228 151.379 35.6997 151.387C35.6765 151.396 35.6553 151.409 35.6373 151.426Z" fill="#B47001"/>
<path d="M36.9622 151.957C36.9417 151.973 36.9247 151.993 36.9125 152.016C36.9003 152.039 36.8931 152.064 36.8914 152.09C36.8897 152.116 36.8936 152.142 36.9027 152.167C36.9117 152.191 36.9259 152.213 36.9442 152.232L38.6932 154.262C38.7117 154.285 38.7359 154.302 38.7633 154.313C38.7908 154.323 38.8205 154.326 38.8496 154.322C38.8896 154.324 38.9293 154.313 38.9624 154.29C38.9819 154.273 38.9979 154.253 39.0093 154.23C39.0208 154.207 39.0276 154.182 39.0293 154.156C39.031 154.131 39.0275 154.105 39.0191 154.081C39.0107 154.057 38.9976 154.034 38.9804 154.015L37.2314 151.985C37.1992 151.946 37.153 151.921 37.1026 151.916C37.0522 151.91 37.0018 151.925 36.9622 151.957Z" fill="#B46F02"/>
<path d="M38.3807 152.357C38.3412 152.392 38.3174 152.442 38.3145 152.495C38.3115 152.548 38.3297 152.6 38.365 152.64L40.169 154.741C40.1892 154.766 40.2151 154.786 40.2445 154.799C40.2739 154.812 40.306 154.817 40.338 154.815C40.3808 154.816 40.4228 154.804 40.4589 154.781C40.4946 154.745 40.5162 154.697 40.5195 154.647C40.5228 154.596 40.5077 154.546 40.4769 154.506L38.6728 152.405C38.6404 152.359 38.5915 152.329 38.5367 152.32C38.4819 152.311 38.4258 152.324 38.3807 152.357V152.357Z" fill="#B56F02"/>
<path d="M39.9012 152.623C39.8618 152.659 39.8374 152.708 39.833 152.761C39.8286 152.814 39.8445 152.867 39.8774 152.908L41.7423 155.071C41.7625 155.096 41.7884 155.116 41.8178 155.129C41.8472 155.141 41.8792 155.147 41.9113 155.145C41.9541 155.146 41.9961 155.134 42.0322 155.111C42.0526 155.094 42.0695 155.073 42.0818 155.049C42.0941 155.026 42.1016 155 42.1038 154.973C42.106 154.947 42.1029 154.92 42.0947 154.895C42.0865 154.869 42.0733 154.846 42.056 154.826L40.1911 152.663C40.1761 152.64 40.1561 152.62 40.1327 152.605C40.1093 152.59 40.0829 152.58 40.0554 152.576C40.0278 152.573 39.9998 152.575 39.9732 152.583C39.9466 152.591 39.922 152.605 39.9012 152.623Z" fill="#B56E03"/>
<path d="M41.4845 152.741C41.4629 152.76 41.4453 152.782 41.4326 152.807C41.4199 152.832 41.4125 152.86 41.4107 152.888C41.4089 152.916 41.4128 152.944 41.4221 152.971C41.4315 152.998 41.4462 153.022 41.4652 153.043L43.3829 155.269C43.403 155.296 43.4302 155.317 43.4614 155.33C43.4926 155.342 43.5266 155.346 43.5599 155.341C43.6031 155.345 43.6465 155.333 43.6808 155.307C43.7222 155.27 43.7477 155.219 43.7517 155.164C43.7558 155.109 43.738 155.055 43.7023 155.013L41.7847 152.787C41.7504 152.742 41.6999 152.712 41.6439 152.703C41.5878 152.695 41.5306 152.709 41.4845 152.741V152.741Z" fill="#B66D03"/>
<path d="M43.2121 152.697C43.1705 152.735 43.1453 152.787 43.1417 152.844C43.1381 152.9 43.1564 152.955 43.1928 152.998L45.1678 155.304C45.1923 155.327 45.2214 155.346 45.2532 155.358C45.285 155.37 45.3189 155.375 45.3528 155.373C45.3956 155.374 45.4377 155.362 45.4737 155.339C45.5171 155.302 45.5443 155.25 45.5494 155.193C45.5545 155.136 45.5371 155.08 45.501 155.036L43.5203 152.74C43.5031 152.717 43.4814 152.697 43.4565 152.682C43.4316 152.667 43.404 152.658 43.3753 152.654C43.3466 152.65 43.3174 152.651 43.2894 152.659C43.2613 152.666 43.235 152.679 43.2121 152.697V152.697Z" fill="#B66D04"/>
<path d="M44.9662 152.497C44.9437 152.515 44.9252 152.538 44.9117 152.564C44.8982 152.59 44.8901 152.618 44.8877 152.647C44.8854 152.677 44.8889 152.706 44.8981 152.733C44.9073 152.761 44.922 152.787 44.9412 152.809L46.9747 155.167C46.9973 155.195 47.0261 155.216 47.0588 155.229C47.0914 155.243 47.1269 155.248 47.162 155.245C47.208 155.249 47.2538 155.236 47.291 155.208C47.3345 155.17 47.3614 155.116 47.3661 155.058C47.3708 155 47.3528 154.942 47.316 154.897L45.2803 152.53C45.2623 152.507 45.2397 152.487 45.2139 152.473C45.1882 152.458 45.1597 152.449 45.1303 152.446C45.101 152.443 45.0713 152.446 45.0431 152.455C45.0149 152.463 44.9887 152.478 44.9662 152.497V152.497Z" fill="#B66C04"/>
<path d="M46.8211 152.156C46.7985 152.174 46.78 152.197 46.7665 152.223C46.753 152.249 46.7449 152.277 46.7425 152.306C46.7402 152.335 46.7437 152.365 46.7529 152.392C46.7621 152.42 46.7768 152.445 46.796 152.467L48.8777 154.873C48.9015 154.899 48.9306 154.919 48.9629 154.933C48.9952 154.946 49.0301 154.952 49.065 154.951C49.1133 154.95 49.1606 154.937 49.2021 154.912C49.2457 154.872 49.2724 154.816 49.2766 154.757C49.2808 154.697 49.2623 154.639 49.2248 154.592L47.1363 152.162C47.1164 152.14 47.0923 152.123 47.0655 152.111C47.0386 152.099 47.0096 152.092 46.9801 152.091C46.9506 152.091 46.9213 152.096 46.894 152.107C46.8667 152.118 46.8418 152.135 46.8211 152.156V152.156Z" fill="#B76B05"/>
<path d="M48.7331 151.624C48.6893 151.666 48.6628 151.723 48.659 151.784C48.6553 151.845 48.6744 151.904 48.7126 151.952L50.8643 154.451C50.8868 154.478 50.9157 154.5 50.9483 154.513C50.981 154.527 51.0164 154.532 51.0516 154.529C51.0999 154.528 51.1473 154.515 51.1886 154.49C51.2361 154.45 51.2658 154.393 51.2712 154.331C51.2765 154.269 51.2571 154.207 51.2172 154.16L49.0655 151.66C49.0463 151.636 49.0223 151.616 48.9951 151.601C48.9679 151.585 48.9379 151.576 48.907 151.573C48.876 151.569 48.8447 151.572 48.8149 151.581C48.785 151.59 48.7572 151.604 48.7331 151.624V151.624Z" fill="#B76B05"/>
<path d="M50.7174 150.914C50.6698 150.956 50.6403 151.015 50.6354 151.078C50.6305 151.141 50.6505 151.204 50.6911 151.253L52.8955 153.815C52.9199 153.844 52.9504 153.866 52.9846 153.88C53.0189 153.895 53.056 153.901 53.0932 153.899C53.1442 153.897 53.194 153.883 53.2383 153.858C53.2619 153.837 53.2812 153.812 53.295 153.784C53.3087 153.756 53.3167 153.725 53.3184 153.694C53.3201 153.662 53.3155 153.631 53.3048 153.602C53.2942 153.572 53.2777 153.545 53.2565 153.522L51.0601 150.957C51.0193 150.907 50.961 150.875 50.8972 150.867C50.8335 150.86 50.7691 150.876 50.7174 150.914V150.914Z" fill="#B86A06"/>
<path d="M52.7635 150.023C52.7389 150.043 52.7187 150.068 52.704 150.096C52.6893 150.124 52.6804 150.155 52.678 150.186C52.6755 150.218 52.6795 150.25 52.6897 150.28C52.6999 150.31 52.7161 150.337 52.7372 150.361L54.9966 152.995C55.0219 153.025 55.0539 153.049 55.09 153.065C55.1261 153.08 55.1654 153.087 55.2046 153.085C55.2529 153.084 55.3002 153.07 55.3417 153.046C55.3663 153.025 55.3864 152.999 55.401 152.97C55.4155 152.941 55.4242 152.91 55.4264 152.878C55.4286 152.845 55.4244 152.813 55.414 152.782C55.4036 152.752 55.3871 152.724 55.3656 152.7L53.1062 150.065C53.0866 150.04 53.0622 150.018 53.0343 150.003C53.0064 149.987 52.9756 149.976 52.9437 149.972C52.9118 149.969 52.8795 149.971 52.8485 149.98C52.8176 149.988 52.7887 150.003 52.7635 150.023V150.023Z" fill="#B86A06"/>
<path d="M54.86 148.942C54.8104 148.985 54.7793 149.045 54.7733 149.11C54.7674 149.175 54.787 149.24 54.828 149.291L57.1505 151.995C57.1744 152.025 57.2061 152.049 57.2423 152.063C57.2785 152.077 57.3178 152.082 57.3562 152.076C57.3819 152.079 57.408 152.077 57.433 152.07C57.4579 152.063 57.4811 152.051 57.5013 152.035C57.5268 152.014 57.548 151.989 57.5635 151.96C57.579 151.931 57.5885 151.9 57.5915 151.867C57.5945 151.835 57.5909 151.802 57.5809 151.771C57.5709 151.74 57.5547 151.711 57.5334 151.686L55.2144 148.964C55.1932 148.939 55.1669 148.917 55.1373 148.902C55.1076 148.887 55.0751 148.878 55.0419 148.876C55.0087 148.874 54.9754 148.879 54.9441 148.891C54.9128 148.902 54.8842 148.92 54.86 148.942Z" fill="#B96907"/>
<path d="M57.0065 147.665C56.9567 147.71 56.9265 147.772 56.9224 147.838C56.9183 147.905 56.9408 147.97 56.9848 148.02L59.3715 150.827C59.3967 150.857 59.4287 150.881 59.4649 150.896C59.501 150.912 59.5402 150.919 59.5795 150.916C59.6338 150.918 59.6874 150.903 59.7326 150.873C59.7824 150.829 59.8127 150.767 59.8167 150.7C59.8208 150.634 59.7983 150.568 59.7543 150.519L57.3677 147.711C57.3475 147.684 57.322 147.661 57.2926 147.644C57.2633 147.626 57.2307 147.615 57.1969 147.611C57.1632 147.607 57.1288 147.609 57.0961 147.619C57.0634 147.628 57.0329 147.644 57.0065 147.665V147.665Z" fill="#B96807"/>
<path d="M59.2076 146.182C59.1809 146.203 59.159 146.23 59.1431 146.26C59.1272 146.291 59.1177 146.324 59.1151 146.358C59.1126 146.392 59.117 146.426 59.1282 146.459C59.1393 146.491 59.157 146.521 59.1801 146.546L61.6104 149.385C61.6375 149.414 61.6711 149.438 61.7085 149.453C61.7459 149.468 61.7862 149.474 61.8264 149.472C61.8802 149.469 61.9326 149.454 61.9796 149.428C62.0295 149.382 62.0601 149.319 62.0652 149.251C62.0703 149.184 62.0495 149.117 62.0071 149.064L59.5801 146.268C59.5634 146.235 59.5398 146.207 59.5111 146.185C59.4824 146.163 59.4492 146.147 59.4137 146.139C59.3783 146.13 59.3415 146.13 59.3059 146.137C59.2703 146.145 59.2368 146.16 59.2076 146.182V146.182Z" fill="#BA6808"/>
<path d="M61.4359 144.49C61.3859 144.537 61.3555 144.602 61.3508 144.671C61.3462 144.74 61.3676 144.808 61.4108 144.862L63.9018 147.762C63.928 147.794 63.9615 147.819 63.9995 147.836C64.0375 147.852 64.0789 147.86 64.1202 147.857C64.1772 147.858 64.2332 147.842 64.2814 147.811C64.3315 147.764 64.3618 147.699 64.3665 147.63C64.3712 147.561 64.3498 147.493 64.3066 147.439L61.7948 144.527C61.7505 144.478 61.6891 144.446 61.6227 144.439C61.5563 144.432 61.4897 144.45 61.4359 144.49V144.49Z" fill="#BA6708"/>
<path d="M63.7826 142.66C63.7309 142.705 63.699 142.768 63.6938 142.836C63.6887 142.905 63.7107 142.972 63.7551 143.024L66.166 145.825C66.1938 145.854 66.2275 145.876 66.2647 145.891C66.302 145.906 66.3419 145.913 66.3821 145.912C66.4291 145.907 66.474 145.89 66.5121 145.862C66.5501 145.834 66.5798 145.796 66.5979 145.753C66.616 145.709 66.6218 145.661 66.6148 145.615C66.6078 145.568 66.5882 145.524 66.5581 145.488L64.1473 142.687C64.1257 142.661 64.099 142.639 64.0686 142.623C64.0383 142.607 64.0051 142.597 63.9709 142.595C63.9368 142.592 63.9024 142.597 63.8701 142.608C63.8377 142.619 63.8079 142.637 63.7826 142.66V142.66Z" fill="#BE6C08"/>
<path d="M65.9462 140.734C65.8963 140.78 65.8657 140.843 65.8606 140.911C65.8555 140.978 65.8763 141.045 65.9187 141.098L68.2574 143.797C68.2813 143.828 68.313 143.852 68.3492 143.866C68.3853 143.88 68.4247 143.885 68.4631 143.878C68.5178 143.885 68.5729 143.869 68.6162 143.835C68.666 143.791 68.6963 143.729 68.7004 143.663C68.7044 143.596 68.682 143.531 68.6379 143.481L66.3074 140.78C66.2872 140.752 66.2617 140.729 66.2323 140.712C66.203 140.695 66.1704 140.684 66.1366 140.679C66.1029 140.675 66.0686 140.678 66.0358 140.687C66.0031 140.696 65.9726 140.712 65.9462 140.734V140.734Z" fill="#C37007"/>
<path d="M67.9254 138.746C67.9008 138.767 67.8806 138.793 67.866 138.822C67.8515 138.851 67.8428 138.882 67.8406 138.914C67.8384 138.947 67.8426 138.979 67.8531 139.01C67.8635 139.04 67.8799 139.068 67.9014 139.093L70.1517 141.695C70.1756 141.725 70.2073 141.749 70.2435 141.763C70.2797 141.778 70.319 141.782 70.3574 141.776C70.3831 141.779 70.4092 141.777 70.4342 141.77C70.4591 141.763 70.4823 141.751 70.5025 141.735C70.5271 141.714 70.5473 141.688 70.5619 141.659C70.5764 141.63 70.585 141.599 70.5873 141.567C70.5895 141.534 70.5853 141.502 70.5748 141.472C70.5644 141.441 70.548 141.413 70.5265 141.389L68.2762 138.786C68.2564 138.76 68.2313 138.738 68.2027 138.721C68.174 138.705 68.1423 138.695 68.1094 138.691C68.0766 138.687 68.0433 138.69 68.0117 138.7C67.98 138.709 67.9507 138.725 67.9254 138.746V138.746Z" fill="#C77507"/>
<path d="M69.7062 136.702C69.6826 136.723 69.6633 136.748 69.6496 136.776C69.6358 136.804 69.6278 136.835 69.6262 136.866C69.6245 136.898 69.629 136.929 69.6397 136.958C69.6503 136.988 69.6668 137.015 69.688 137.038L71.8581 139.541C71.8852 139.567 71.9174 139.588 71.9527 139.602C71.9881 139.616 72.0258 139.623 72.0638 139.622C72.1148 139.62 72.1646 139.606 72.2089 139.581C72.2549 139.536 72.2828 139.476 72.2872 139.412C72.2916 139.349 72.2723 139.285 72.2329 139.235L70.0295 136.706C69.9856 136.666 69.9283 136.643 69.8687 136.643C69.8091 136.642 69.7513 136.663 69.7062 136.702Z" fill="#CB7A06"/>
<path d="M71.2993 134.607C71.2757 134.626 71.2563 134.651 71.2424 134.678C71.2285 134.705 71.2204 134.735 71.2185 134.766C71.2166 134.797 71.2209 134.828 71.2313 134.856C71.2417 134.885 71.2578 134.912 71.2788 134.934L73.3766 137.336C73.4011 137.363 73.4315 137.383 73.4654 137.397C73.4993 137.41 73.5358 137.415 73.572 137.411C73.6208 137.415 73.6693 137.401 73.709 137.372C73.7549 137.33 73.783 137.271 73.7878 137.208C73.7927 137.146 73.7739 137.084 73.7353 137.034L71.6397 134.641C71.6203 134.615 71.5958 134.594 71.5678 134.579C71.5398 134.563 71.5089 134.553 71.4769 134.55C71.445 134.547 71.4128 134.55 71.3822 134.56C71.3517 134.57 71.3235 134.585 71.2993 134.607V134.607Z" fill="#D07E06"/>
<path d="M72.689 132.472C72.6654 132.491 72.646 132.515 72.6319 132.541C72.6179 132.568 72.6095 132.597 72.6074 132.627C72.6053 132.657 72.6094 132.688 72.6195 132.716C72.6296 132.744 72.6455 132.77 72.6662 132.792L74.6815 135.086C74.7058 135.115 74.7363 135.137 74.7706 135.151C74.8049 135.166 74.842 135.172 74.8792 135.17C74.9211 135.165 74.9609 135.149 74.9944 135.123C75.0278 135.097 75.0538 135.063 75.0694 135.024C75.0851 134.985 75.0899 134.942 75.0833 134.9C75.0767 134.859 75.0591 134.82 75.0321 134.787L73.0146 132.485C72.9725 132.441 72.915 132.415 72.8543 132.413C72.7935 132.411 72.7343 132.432 72.689 132.472V132.472Z" fill="#D48305"/>
<path d="M73.8935 130.391C73.8709 130.411 73.8524 130.434 73.8391 130.461C73.8257 130.487 73.8177 130.517 73.8156 130.546C73.8135 130.576 73.8173 130.606 73.8268 130.634C73.8362 130.662 73.8511 130.688 73.8707 130.711L75.8138 132.904C75.8376 132.929 75.8666 132.95 75.8989 132.963C75.9313 132.976 75.9661 132.983 76.0011 132.981C76.0493 132.98 76.0963 132.966 76.1381 132.942C76.1819 132.902 76.2079 132.846 76.2107 132.787C76.2134 132.727 76.1926 132.669 76.1528 132.625L74.2178 130.43C74.1995 130.406 74.1764 130.385 74.15 130.37C74.1235 130.355 74.0943 130.345 74.064 130.341C74.0337 130.338 74.0029 130.34 73.9736 130.349C73.9443 130.357 73.917 130.372 73.8935 130.391V130.391Z" fill="#D88805"/>
<path d="M74.867 128.227C74.8454 128.246 74.8278 128.269 74.8152 128.295C74.8027 128.321 74.7954 128.349 74.7938 128.378C74.7922 128.407 74.7964 128.436 74.806 128.463C74.8157 128.49 74.8306 128.515 74.85 128.536L76.7024 130.624C76.7252 130.65 76.754 130.67 76.7862 130.682C76.8185 130.694 76.8533 130.698 76.8875 130.694C76.9335 130.697 76.9792 130.684 77.0165 130.657C77.0381 130.638 77.0556 130.615 77.0682 130.589C77.0808 130.563 77.088 130.535 77.0896 130.506C77.0912 130.477 77.087 130.448 77.0774 130.421C77.0678 130.394 77.0528 130.369 77.0334 130.348L75.181 128.26C75.1433 128.215 75.0894 128.186 75.0307 128.18C74.9721 128.173 74.9133 128.19 74.867 128.227V128.227Z" fill="#DD8D04"/>
<path d="M75.636 126.112C75.6144 126.13 75.5968 126.153 75.5841 126.178C75.5714 126.203 75.564 126.231 75.5622 126.259C75.5604 126.287 75.5643 126.315 75.5736 126.342C75.583 126.368 75.5977 126.393 75.6167 126.414L77.3993 128.408C77.4221 128.432 77.4496 128.45 77.4801 128.463C77.5106 128.475 77.5434 128.481 77.5762 128.48C77.6217 128.479 77.6663 128.467 77.7052 128.443C77.7469 128.404 77.7719 128.349 77.775 128.292C77.7782 128.234 77.7593 128.178 77.7222 128.134L75.9419 126.147C75.9249 126.124 75.9032 126.104 75.8782 126.09C75.8532 126.075 75.8255 126.066 75.7967 126.063C75.768 126.059 75.7388 126.062 75.7112 126.071C75.6835 126.079 75.6579 126.093 75.636 126.112Z" fill="#E19104"/>
<path d="M76.1858 124.024C76.1461 124.063 76.1228 124.116 76.1207 124.171C76.1186 124.227 76.1379 124.281 76.1746 124.323L77.8746 126.21C77.8956 126.234 77.9216 126.253 77.9508 126.266C77.98 126.279 78.0117 126.285 78.0435 126.284C78.0895 126.288 78.1353 126.275 78.1725 126.248C78.2121 126.211 78.2357 126.16 78.2382 126.105C78.2407 126.051 78.222 125.998 78.186 125.957L76.486 124.07C76.4706 124.045 76.4502 124.025 76.4261 124.009C76.402 123.993 76.3748 123.983 76.3463 123.978C76.3179 123.974 76.2888 123.976 76.2611 123.984C76.2334 123.992 76.2078 124.005 76.1858 124.024V124.024Z" fill="#E59603"/>
<path d="M76.5146 121.99C76.4751 122.025 76.4513 122.075 76.4484 122.128C76.4454 122.181 76.4636 122.233 76.4989 122.273L78.1266 124.058C78.147 124.082 78.1728 124.1 78.2018 124.112C78.2309 124.123 78.2622 124.128 78.2933 124.124C78.3365 124.129 78.3799 124.117 78.4142 124.09C78.4537 124.055 78.4775 124.005 78.4804 123.952C78.4834 123.899 78.4652 123.847 78.4299 123.807L76.808 122.011C76.7907 121.99 76.7692 121.972 76.7447 121.959C76.7203 121.946 76.6935 121.939 76.666 121.937C76.6385 121.935 76.6108 121.938 76.5848 121.947C76.5587 121.956 76.5349 121.971 76.5146 121.99Z" fill="#E99B03"/>
<path d="M76.6348 120.041C76.5954 120.076 76.5715 120.126 76.5686 120.179C76.5656 120.232 76.5838 120.284 76.6191 120.324L78.1666 122.01C78.1868 122.031 78.2112 122.047 78.2382 122.057C78.2651 122.068 78.2941 122.072 78.3229 122.071C78.3689 122.074 78.4146 122.061 78.4519 122.034C78.4896 121.998 78.5114 121.948 78.5129 121.895C78.5143 121.843 78.4952 121.792 78.4596 121.753L76.9121 120.067C76.8959 120.046 76.8758 120.029 76.8529 120.017C76.8301 120.005 76.8049 119.997 76.779 119.995C76.7531 119.992 76.727 119.995 76.7022 120.003C76.6774 120.011 76.6545 120.024 76.6348 120.041V120.041Z" fill="#EE9F02"/>
<path d="M76.4921 118.088C76.4564 118.123 76.4361 118.172 76.4358 118.222C76.4354 118.273 76.455 118.322 76.4902 118.358L77.9494 119.948C77.9919 119.987 78.0478 120.009 78.1057 120.008C78.1485 120.009 78.1906 119.997 78.2266 119.974C78.2463 119.957 78.2622 119.937 78.2735 119.914C78.2847 119.89 78.291 119.865 78.292 119.84C78.2929 119.814 78.2885 119.788 78.2789 119.764C78.2694 119.741 78.255 119.719 78.2366 119.701L76.7694 118.114C76.7532 118.093 76.7331 118.076 76.7102 118.064C76.6874 118.052 76.6622 118.044 76.6363 118.041C76.6104 118.039 76.5843 118.042 76.5595 118.05C76.5347 118.058 76.5118 118.071 76.4921 118.088Z" fill="#F2A402"/>
<path d="M76.141 116.263C76.1224 116.279 76.1074 116.299 76.0967 116.321C76.086 116.344 76.0799 116.368 76.0788 116.393C76.0776 116.417 76.0814 116.442 76.09 116.465C76.0986 116.488 76.1118 116.51 76.1287 116.528L77.5134 118.008C77.5319 118.03 77.556 118.048 77.5835 118.059C77.6109 118.069 77.6407 118.072 77.6697 118.068C77.7097 118.069 77.749 118.058 77.7826 118.036C77.8181 118.002 77.8391 117.955 77.8414 117.906C77.8437 117.857 77.827 117.809 77.7948 117.771L76.4355 116.258C76.418 116.235 76.3954 116.217 76.3697 116.205C76.3439 116.193 76.3156 116.186 76.287 116.187C76.2584 116.187 76.2304 116.194 76.205 116.208C76.1797 116.221 76.1577 116.24 76.141 116.263V116.263Z" fill="#F6A901"/>
<path d="M75.54 114.535C75.5223 114.552 75.5082 114.572 75.4985 114.595C75.4887 114.617 75.4834 114.641 75.4831 114.666C75.4827 114.69 75.4871 114.714 75.4962 114.737C75.5053 114.76 75.5187 114.78 75.5358 114.798L76.8379 116.171C76.8565 116.19 76.8793 116.205 76.9046 116.215C76.9299 116.224 76.9571 116.228 76.9839 116.225C77.024 116.227 77.0636 116.216 77.0968 116.193C77.1144 116.177 77.1286 116.158 77.1384 116.136C77.1483 116.115 77.1538 116.091 77.1544 116.067C77.155 116.044 77.1508 116.02 77.142 115.998C77.1332 115.976 77.12 115.956 77.1032 115.939L75.8011 114.566C75.7861 114.547 75.7674 114.53 75.7461 114.518C75.7248 114.506 75.7013 114.499 75.677 114.496C75.6527 114.493 75.628 114.495 75.6045 114.502C75.581 114.509 75.5591 114.52 75.54 114.535Z" fill="#FBAD01"/>
<path d="M74.7018 112.927C74.6842 112.943 74.67 112.962 74.6601 112.984C74.6502 113.005 74.6448 113.029 74.6442 113.052C74.6436 113.076 74.6478 113.1 74.6566 113.122C74.6654 113.144 74.6786 113.164 74.6953 113.181L75.9275 114.46C75.947 114.479 75.97 114.493 75.995 114.502C76.0201 114.512 76.0468 114.516 76.0735 114.515C76.1134 114.515 76.1526 114.504 76.1864 114.483C76.2031 114.467 76.2163 114.449 76.2255 114.428C76.2346 114.407 76.2393 114.384 76.2394 114.361C76.2395 114.338 76.2348 114.316 76.2258 114.295C76.2168 114.274 76.2036 114.255 76.1871 114.239L74.9548 112.96C74.9408 112.94 74.9229 112.924 74.9024 112.912C74.8819 112.9 74.8591 112.892 74.8354 112.889C74.8117 112.886 74.7877 112.888 74.7647 112.894C74.7417 112.901 74.7203 112.912 74.7018 112.927V112.927Z" fill="#FFB200"/>
<path d="M117.386 17.8579C115.947 19.4533 114.758 21.257 113.858 23.2077C112.944 25.1034 112.343 27.1342 112.077 29.2217C111.844 31.1425 111.953 33.0891 112.396 34.9723C112.821 36.7613 113.619 38.4403 114.738 39.8989C115.894 41.3842 117.402 42.5585 119.125 43.3158C120.953 44.1016 122.943 44.4348 124.927 44.287C127.05 44.1228 129.119 43.5379 131.013 42.5664C133.086 41.528 134.957 40.1295 136.54 38.4361C138.248 36.6486 139.63 34.5757 140.623 32.3112C141.579 30.1423 142.119 27.8134 142.216 25.4452C142.302 23.3656 141.961 21.2905 141.215 19.3476C140.535 17.5865 139.454 16.0083 138.058 14.7386C136.667 13.4947 134.994 12.6082 133.184 12.1557C131.328 11.7061 129.397 11.6583 127.521 12.0156C125.613 12.3781 123.782 13.0666 122.107 14.051C120.353 15.0779 118.762 16.361 117.386 17.8579V17.8579Z" fill="url(#paint15_linear_12_493)"/>
<path d="M116.232 16.8523C114.689 18.5478 113.409 20.4649 112.434 22.5396C111.469 24.5717 110.831 26.744 110.546 28.9756C110.281 31.0348 110.386 33.1246 110.854 35.1472C111.295 37.074 112.139 38.8853 113.331 40.462C114.562 42.067 116.173 43.3407 118.018 44.1685C119.984 45.0406 122.132 45.4221 124.278 45.2802C126.575 45.1308 128.818 44.5174 130.871 43.4771C133.115 42.3548 135.143 40.8443 136.861 39.0156C138.702 37.0665 140.185 34.8084 141.243 32.3449C142.272 29.9922 142.849 27.4667 142.942 24.9005C143.034 22.6564 142.662 20.4176 141.849 18.3239C141.108 16.4292 139.934 14.734 138.421 13.3736C136.914 12.049 135.107 11.1108 133.157 10.64C131.147 10.1677 129.059 10.1316 127.034 10.5343C124.987 10.939 123.023 11.6883 121.227 12.7504C119.367 13.8605 117.683 15.2432 116.232 16.8523V16.8523ZM122.058 14.0564C123.732 13.072 125.563 12.3834 127.471 12.021C129.347 11.6637 131.278 11.7114 133.134 12.1611C134.947 12.6117 136.623 13.4975 138.016 14.7417C139.413 16.0114 140.494 17.5896 141.173 19.3507C141.92 21.2936 142.26 23.3688 142.175 25.4483C142.09 27.8126 141.564 30.1402 140.624 32.311C139.646 34.5806 138.278 36.6613 136.582 38.459C134.999 40.1524 133.128 41.5509 131.055 42.5894C129.161 43.5608 127.092 44.1457 124.97 44.3099C122.986 44.4577 120.995 44.1245 119.167 43.3387C117.444 42.5814 115.937 41.4071 114.78 39.9218C113.661 38.4632 112.863 36.7842 112.439 34.9952C111.995 33.112 111.887 31.1654 112.119 29.2446C112.385 27.1571 112.987 25.1263 113.901 23.2306C114.8 21.2799 115.99 19.4762 117.428 17.8808C118.779 16.382 120.345 15.0917 122.074 14.0518L122.058 14.0564Z" fill="url(#paint16_linear_12_493)"/>
<path d="M119.904 52.784L116.67 51.4437C119.352 52.5342 122.251 52.9843 125.137 52.7583C128.263 52.5145 131.31 51.6532 134.101 50.2243C137.157 48.6574 139.913 46.5641 142.242 44.0405C144.735 41.3628 146.735 38.2658 148.151 34.8922C149.124 32.597 149.797 30.1861 150.154 27.719C150.473 25.4842 150.488 23.2164 150.198 20.9776C149.93 18.9375 149.368 16.9472 148.528 15.0691C147.756 13.3209 146.712 11.7062 145.434 10.2853L147.754 12.8853C149.012 14.283 150.047 15.8667 150.822 17.5804C151.648 19.422 152.2 21.3746 152.46 23.376C152.763 25.5559 152.764 27.767 152.464 29.9473C152.151 32.3293 151.532 34.6608 150.621 36.8839C149.26 40.1538 147.325 43.1537 144.908 45.7416C142.649 48.1738 139.974 50.1828 137.009 51.6741C134.287 53.0711 131.314 53.9117 128.263 54.1466C125.409 54.3441 122.548 53.8777 119.904 52.784V52.784Z" fill="url(#paint17_linear_12_493)"/>
<path d="M113.563 13.7852C111.513 16.0347 109.802 18.5711 108.484 21.3146C107.178 24.0202 106.298 26.9117 105.876 29.8864C105.491 32.6643 105.585 35.4878 106.156 38.2338C106.701 40.8777 107.788 43.3801 109.348 45.5837C110.972 47.8528 113.131 49.6854 115.635 50.9182C118.314 52.2215 121.271 52.8499 124.248 52.7487C127.459 52.629 130.61 51.8419 133.501 50.4375C136.683 48.9086 139.559 46.8122 141.989 44.2512C144.594 41.5158 146.678 38.3276 148.139 34.8436C149.563 31.5335 150.332 27.9785 150.402 24.3757C150.458 21.2598 149.857 18.1671 148.637 15.2992C147.53 12.7201 145.829 10.4389 143.674 8.64171C141.543 6.88985 139.017 5.68272 136.316 5.12448C133.581 4.56088 130.76 4.57302 128.03 5.1601C125.285 5.74382 122.657 6.78102 120.254 8.22904C117.761 9.73993 115.506 11.6124 113.563 13.7852V13.7852ZM120.006 8.64717C122.313 7.24374 124.838 6.23573 127.476 5.66483C130.096 5.10045 132.805 5.09387 135.427 5.64554C138.017 6.18173 140.436 7.34134 142.476 9.02383C144.527 10.7603 146.14 12.9552 147.186 15.431C148.342 18.1861 148.902 21.1544 148.83 24.1412C148.747 27.5843 148.005 30.9796 146.644 34.1433C145.24 37.4689 143.246 40.5129 140.757 43.1282C138.443 45.5848 135.699 47.5968 132.66 49.0648C129.902 50.418 126.893 51.1827 123.824 51.3104C120.977 51.4319 118.145 50.8481 115.579 49.611C113.177 48.4492 111.103 46.7083 109.542 44.5452C108.039 42.4391 106.992 40.0436 106.465 37.5109C105.913 34.8738 105.82 32.1612 106.191 29.4926C106.588 26.6193 107.431 23.8257 108.691 21.2127C109.959 18.554 111.61 16.0957 113.592 13.9164C115.466 11.8612 117.626 10.0866 120.006 8.64717V8.64717Z" fill="url(#paint18_linear_12_493)"/>
<path d="M108.673 21.2436C109.941 18.5848 111.592 16.1265 113.574 13.9473C115.456 11.877 117.628 10.0902 120.022 8.64246C122.328 7.23902 124.853 6.23102 127.492 5.66012C130.112 5.09574 132.821 5.08916 135.443 5.64082C138.032 6.17702 140.452 7.33663 142.492 9.01912C144.543 10.7556 146.156 12.9505 147.202 15.4263C148.357 18.1814 148.918 21.1497 148.846 24.1365C148.763 27.5796 148.021 30.9749 146.659 34.1385C145.255 37.4642 143.261 40.5082 140.773 43.1235C138.459 45.5801 135.715 47.5921 132.676 49.0601C129.918 50.4133 126.909 51.178 123.839 51.3057C120.993 51.4272 118.161 50.8434 115.594 49.6063C113.193 48.4445 111.118 46.7036 109.557 44.5405C108.055 42.4344 107.007 40.0389 106.48 37.5062C105.928 34.8691 105.836 32.1565 106.207 29.4879C106.597 26.6287 107.429 23.8474 108.673 21.2436V21.2436ZM112.45 22.5348C111.485 24.5669 110.847 26.7391 110.561 28.9707C110.297 31.03 110.402 33.1197 110.87 35.1424C111.305 37.0694 112.144 38.8823 113.331 40.4617C114.562 42.0667 116.172 43.3404 118.018 44.1682C119.983 45.0403 122.132 45.4218 124.277 45.2799C126.574 45.1304 128.817 44.5171 130.871 43.4768C133.115 42.3545 135.143 40.844 136.861 39.0153C138.702 37.0662 140.185 34.8081 141.243 32.3446C142.272 29.9919 142.848 27.4664 142.942 24.9002C143.034 22.6561 142.662 20.4173 141.849 18.3236C141.108 16.4289 139.934 14.7337 138.421 13.3733C136.914 12.0487 135.107 11.1105 133.157 10.6397C131.146 10.1674 129.058 10.1313 127.033 10.534C124.986 10.9387 123.023 11.688 121.227 12.7501C119.366 13.8602 117.683 15.2429 116.232 16.852C114.695 18.5472 113.421 20.4627 112.45 22.5348Z" fill="url(#paint19_linear_12_493)"/>
<path d="M126.187 18.5037L125.945 16.509L128.685 15.2382L128.916 15.6865L128.919 18.0361C130.86 17.9137 132.436 17.6684 133.649 18.3265L133.843 19.0117L132.242 23.4164C130.951 22.4809 129.365 22.0449 127.777 22.1889C126.401 22.3692 125.875 22.7267 125.843 23.3538C125.668 25.597 133.906 22.7456 134.162 29.8377C134.257 31.6868 133.721 33.5134 132.643 35.0185C131.564 36.5237 130.007 37.6182 128.225 38.1229L128.106 42.2568L124.469 42.6321L123.876 42.321L124.681 38.6113C122.98 38.6333 121.315 38.1243 119.917 37.1551L121.745 31.8593L122.272 31.4143C123.57 32.2452 125.109 32.6135 126.642 32.4597C128.258 32.264 128.786 31.5751 128.798 30.8491C128.875 28.3812 119.977 31.5149 120.979 24.4068C121.19 23.0271 121.793 21.7371 122.716 20.6905C123.64 19.6439 124.844 18.8848 126.187 18.5037V18.5037Z" fill="url(#paint20_linear_12_493)"/>
<path d="M125.846 17.9123L126.057 15.5806L128.701 15.2335L128.583 17.4343C130.316 17.2769 132.059 17.5799 133.637 18.3125L132.158 22.5956C130.706 21.7837 129.037 21.446 127.384 21.6296C126.007 21.8099 125.474 22.1697 125.436 22.8071C125.249 25.071 133.534 22.1979 133.738 29.3565C133.823 31.2241 133.276 33.0658 132.186 34.5849C131.097 36.1041 129.528 37.2124 127.732 37.7313L127.556 41.8811L123.839 42.3138L124.171 38.2242C122.465 38.2452 120.795 37.7271 119.4 36.7439L121.801 30.9468C123.095 31.7893 124.638 32.1639 126.175 32.0084C127.799 31.8104 128.343 31.1169 128.329 30.3897C128.425 27.8989 119.473 31.0566 120.528 23.8899C120.75 22.4893 121.369 21.1817 122.311 20.1222C123.254 19.0627 124.48 18.2957 125.846 17.9123Z" fill="url(#paint21_linear_12_493)"/>
<path d="M119.911 52.4341C119.877 52.4205 119.839 52.421 119.806 52.4354C119.772 52.4497 119.746 52.4768 119.732 52.5106C119.719 52.5445 119.719 52.5823 119.734 52.6158C119.748 52.6493 119.775 52.6757 119.809 52.6892L121.275 53.2583C121.306 53.2723 121.341 53.2749 121.373 53.2657C121.406 53.2565 121.434 53.2361 121.453 53.2081C121.462 53.1926 121.468 53.1754 121.47 53.1575C121.472 53.1397 121.471 53.1216 121.466 53.1043C121.461 53.087 121.453 53.0709 121.441 53.0568C121.43 53.0428 121.416 53.0312 121.4 53.0227L119.911 52.4341Z" fill="#ED942C"/>
<path d="M120.636 52.664C120.627 52.6795 120.622 52.6968 120.619 52.7146C120.617 52.7324 120.618 52.7505 120.623 52.7678C120.628 52.7851 120.636 52.8013 120.648 52.8153C120.659 52.8293 120.673 52.8409 120.689 52.8494L122.145 53.4736L122.201 53.4577C122.226 53.455 122.25 53.4457 122.27 53.4308C122.291 53.4159 122.307 53.3959 122.317 53.3729C122.331 53.3407 122.333 53.3046 122.324 53.2707C122.314 53.2368 122.293 53.2074 122.264 53.1875V53.1875L120.806 52.5552C120.787 52.5499 120.768 52.5486 120.749 52.5514C120.731 52.5542 120.713 52.5609 120.696 52.5712C120.68 52.5815 120.667 52.5951 120.656 52.6111C120.646 52.6271 120.639 52.6452 120.636 52.664V52.664Z" fill="#E99129"/>
<path d="M121.643 52.806C121.634 52.8216 121.628 52.8388 121.626 52.8566C121.624 52.8745 121.625 52.8925 121.63 52.9098C121.635 52.9271 121.643 52.9433 121.654 52.9573C121.666 52.9713 121.68 52.9829 121.695 52.9914L123.162 53.6824C123.182 53.6834 123.202 53.6778 123.218 53.6665C123.242 53.6736 123.268 53.6737 123.292 53.6668C123.317 53.66 123.338 53.6464 123.355 53.6278C123.371 53.5959 123.375 53.5592 123.365 53.5248C123.355 53.4905 123.333 53.4611 123.303 53.4424V53.4424L121.847 52.7571C121.831 52.7462 121.812 52.7387 121.793 52.7352C121.773 52.7317 121.753 52.7323 121.734 52.7369C121.715 52.7415 121.697 52.75 121.681 52.7619C121.666 52.7738 121.653 52.7888 121.643 52.806V52.806Z" fill="#E58E27"/>
<path d="M122.753 52.9104C122.737 52.9438 122.733 52.9819 122.743 53.0176C122.753 53.0533 122.776 53.084 122.808 53.1039V53.1039L124.263 53.8501C124.263 53.8501 124.263 53.8501 124.328 53.8319C124.352 53.8372 124.377 53.8365 124.401 53.8297C124.425 53.8229 124.447 53.8104 124.465 53.7931C124.481 53.7598 124.485 53.7216 124.475 53.6859C124.464 53.6503 124.442 53.6195 124.41 53.5997L122.93 52.8603C122.899 52.8479 122.865 52.846 122.833 52.8551C122.801 52.8642 122.773 52.8836 122.753 52.9104V52.9104Z" fill="#E18B24"/>
<path d="M123.96 52.9608C123.941 52.9937 123.937 53.0326 123.947 53.0689C123.957 53.1051 123.981 53.1358 124.014 53.1543V53.1543L125.47 53.9615C125.49 53.9631 125.51 53.9575 125.526 53.9455C125.552 53.953 125.579 53.9531 125.605 53.9458C125.63 53.9386 125.653 53.9242 125.671 53.9045C125.69 53.8716 125.694 53.8328 125.684 53.7965C125.674 53.7602 125.649 53.7295 125.617 53.7111L124.161 52.9039C124.126 52.8874 124.087 52.8841 124.05 52.8945C124.013 52.905 123.981 52.9286 123.96 52.9608V52.9608Z" fill="#DC8821"/>
<path d="M125.259 52.9412C125.243 52.976 125.239 53.0156 125.25 53.0527C125.26 53.0897 125.284 53.1217 125.316 53.1427V53.1427L126.769 54.0028C126.792 54.0012 126.814 53.995 126.834 53.9846C126.859 53.992 126.887 53.9921 126.912 53.9849C126.938 53.9776 126.961 53.9633 126.979 53.9436C126.995 53.9088 126.999 53.8692 126.988 53.8321C126.978 53.7951 126.954 53.7631 126.922 53.7421V53.7421L125.467 52.8739C125.43 52.8566 125.388 52.854 125.35 52.8665C125.311 52.879 125.279 52.9057 125.259 52.9412V52.9412Z" fill="#D8851E"/>
<path d="M126.631 52.8061C126.615 52.8408 126.612 52.8805 126.622 52.9175C126.632 52.9546 126.656 52.9866 126.688 53.0076C126.688 53.0076 126.688 53.0076 126.688 53.0076L128.144 53.9367L128.219 53.9588C128.247 53.9641 128.275 53.963 128.301 53.9555C128.328 53.9479 128.352 53.9343 128.373 53.9155C128.391 53.8796 128.395 53.8379 128.384 53.799C128.373 53.7601 128.348 53.7268 128.313 53.7059L126.86 52.7848C126.844 52.7707 126.825 52.7601 126.805 52.7535C126.784 52.7469 126.763 52.7445 126.741 52.7465C126.72 52.7485 126.699 52.7548 126.68 52.765C126.661 52.7753 126.645 52.7892 126.631 52.8061V52.8061Z" fill="#D4821C"/>
<path d="M128.085 52.6214C128.067 52.6573 128.062 52.699 128.073 52.7379C128.084 52.7768 128.11 52.8101 128.144 52.831C128.144 52.831 128.144 52.831 128.144 52.831L129.6 53.8211C129.623 53.8365 129.65 53.8468 129.678 53.8512C129.706 53.8576 129.736 53.8568 129.764 53.8489C129.792 53.8409 129.818 53.8261 129.839 53.8056C129.856 53.7694 129.859 53.7283 129.848 53.6899C129.837 53.6515 129.813 53.6182 129.78 53.5961V53.5961L128.335 52.6117C128.319 52.5947 128.299 52.5814 128.277 52.5726C128.255 52.5638 128.231 52.5597 128.208 52.5607C128.184 52.5616 128.161 52.5674 128.14 52.5779C128.119 52.5884 128.1 52.6032 128.085 52.6214Z" fill="#D07F19"/>
<path d="M129.625 52.2814C129.608 52.3177 129.605 52.3587 129.616 52.3972C129.627 52.4356 129.651 52.4689 129.684 52.491L131.137 53.5341L131.193 53.5181C131.223 53.5266 131.255 53.5266 131.285 53.5182C131.315 53.5097 131.342 53.4931 131.363 53.4703C131.379 53.434 131.383 53.3929 131.372 53.3545C131.361 53.3161 131.337 53.2828 131.303 53.2607L129.851 52.2176C129.812 52.1986 129.767 52.1946 129.726 52.2064C129.684 52.2182 129.648 52.2449 129.625 52.2814V52.2814Z" fill="#CC7C16"/>
<path d="M131.222 51.8042C131.199 51.8375 131.188 51.8773 131.19 51.9177C131.192 51.958 131.207 51.9966 131.233 52.0275L132.686 53.1315L132.764 53.1616C132.794 53.1701 132.825 53.1702 132.855 53.1617C132.885 53.1532 132.912 53.1367 132.933 53.1138C132.961 53.0809 132.975 53.0386 132.973 52.9955C132.97 52.9524 132.951 52.9119 132.92 52.8825L131.47 51.7865C131.434 51.7581 131.388 51.7442 131.343 51.7475C131.297 51.7507 131.254 51.771 131.222 51.8042Z" fill="#C87813"/>
<path d="M132.894 51.1572C132.868 51.1907 132.854 51.2323 132.855 51.2749C132.856 51.3175 132.872 51.3585 132.9 51.3908V51.3908L134.352 52.5558C134.376 52.5738 134.403 52.5867 134.432 52.594C134.469 52.5992 134.507 52.5931 134.54 52.5766C134.573 52.5601 134.601 52.5339 134.619 52.5015C134.637 52.4691 134.645 52.4319 134.641 52.3949C134.638 52.3579 134.624 52.3228 134.6 52.2942V52.2942L133.156 51.1269C133.137 51.1103 133.115 51.0979 133.092 51.0904C133.068 51.0829 133.043 51.0805 133.018 51.0833C132.994 51.0862 132.97 51.0943 132.948 51.107C132.927 51.1197 132.909 51.1368 132.894 51.1572V51.1572Z" fill="#C47510"/>
<path d="M134.587 50.3392C134.559 50.3719 134.543 50.4135 134.543 50.4566C134.542 50.4997 134.557 50.5416 134.584 50.5751V50.5751L136.026 51.7953C136.05 51.8132 136.077 51.8262 136.106 51.8335C136.137 51.8399 136.17 51.8386 136.201 51.8299C136.232 51.8212 136.26 51.8052 136.283 51.7833C136.315 51.7507 136.333 51.707 136.333 51.6615C136.333 51.616 136.315 51.5723 136.284 51.5394V51.5394L134.832 50.3134C134.795 50.2867 134.75 50.2745 134.704 50.2793C134.659 50.284 134.617 50.3054 134.587 50.3392V50.3392Z" fill="#C0720E"/>
<path d="M136.345 49.3202C136.315 49.3537 136.297 49.3967 136.296 49.4417C136.294 49.4866 136.308 49.5308 136.336 49.5664C136.336 49.5664 136.336 49.5664 136.336 49.5664L137.785 50.8453L137.868 50.8916C137.902 50.9011 137.938 50.9011 137.973 50.8914C138.007 50.8818 138.038 50.8629 138.062 50.8369C138.09 50.8026 138.107 50.7598 138.108 50.7152C138.11 50.6707 138.096 50.6268 138.07 50.5907V50.5907L136.621 49.3117C136.603 49.2927 136.581 49.2776 136.557 49.2676C136.533 49.2576 136.507 49.2529 136.481 49.2537C136.455 49.2545 136.429 49.2608 136.405 49.2723C136.382 49.2837 136.361 49.3001 136.345 49.3202V49.3202Z" fill="#BC6F0B"/>
<path d="M138.12 48.0869C138.088 48.1212 138.069 48.1657 138.067 48.2125C138.064 48.2594 138.078 48.3057 138.106 48.3434C138.106 48.3434 138.106 48.3434 138.106 48.3434L139.545 49.6776C139.567 49.7006 139.596 49.7167 139.628 49.7238C139.667 49.7366 139.709 49.7363 139.749 49.7231C139.788 49.7099 139.822 49.6844 139.845 49.6504C139.869 49.6163 139.881 49.5756 139.88 49.5343C139.878 49.4929 139.864 49.453 139.838 49.4206C139.838 49.4206 139.838 49.4206 139.838 49.4206L138.391 48.0888C138.354 48.0549 138.306 48.0359 138.256 48.0356C138.206 48.0352 138.157 48.0535 138.12 48.0869Z" fill="#B76C08"/>
<path d="M139.967 46.6159C139.931 46.6484 139.909 46.693 139.905 46.7409C139.901 46.7888 139.915 46.8365 139.944 46.8747C139.944 46.8747 139.944 46.8747 139.955 46.915L141.394 48.3101C141.417 48.3332 141.446 48.3492 141.477 48.3564C141.513 48.3673 141.551 48.3678 141.586 48.3577C141.622 48.3476 141.654 48.3273 141.679 48.2994C141.71 48.2667 141.73 48.2237 141.733 48.1782C141.736 48.1327 141.723 48.0876 141.696 48.0509C141.696 48.0509 141.696 48.0509 141.684 48.0106L140.235 46.6097C140.196 46.5792 140.149 46.5631 140.1 46.5643C140.051 46.5654 140.004 46.5837 139.967 46.6159Z" fill="#B36906"/>
<path d="M141.824 44.8987C141.79 44.9321 141.768 44.9763 141.763 45.0238C141.757 45.0713 141.768 45.1193 141.793 45.1598C141.793 45.1598 141.793 45.1598 141.805 45.2001L143.254 46.6619C143.277 46.687 143.306 46.7057 143.339 46.7163C143.376 46.7248 143.415 46.7239 143.451 46.7135C143.488 46.7032 143.521 46.6837 143.548 46.657C143.582 46.6219 143.603 46.576 143.607 46.5272C143.611 46.4785 143.597 46.43 143.569 46.3901C143.569 46.3901 143.569 46.3901 143.569 46.3901L142.132 44.9421C142.115 44.9187 142.093 44.8991 142.068 44.8842C142.044 44.8693 142.016 44.8596 141.987 44.8556C141.959 44.8515 141.929 44.8533 141.901 44.8607C141.873 44.8681 141.847 44.881 141.824 44.8987V44.8987Z" fill="#AF6603"/>
<path d="M144.007 42.9232C143.988 42.9015 143.965 42.8839 143.939 42.8716C143.913 42.8593 143.885 42.8525 143.856 42.8517C143.827 42.8508 143.798 42.856 143.771 42.8668C143.745 42.8775 143.72 42.8937 143.7 42.9143C143.66 42.9549 143.638 43.0096 143.637 43.0666C143.637 43.1236 143.66 43.1784 143.699 43.2192L145.138 44.7363C145.163 44.7633 145.195 44.7816 145.231 44.7884C145.277 44.8099 145.329 44.8139 145.378 44.7997C145.427 44.7855 145.469 44.754 145.496 44.7111C145.524 44.6682 145.534 44.6169 145.527 44.5666C145.519 44.5164 145.493 44.4707 145.454 44.438L144.007 42.9232Z" fill="#AB6300"/>
<path d="M145.79 40.7651C145.751 40.7239 145.698 40.6996 145.642 40.6975C145.586 40.6954 145.532 40.7157 145.49 40.7539C145.449 40.7921 145.425 40.845 145.423 40.9011C145.421 40.9572 145.441 41.0119 145.479 41.053L146.908 42.5643C146.933 42.5898 146.963 42.6109 146.995 42.6267C147.032 42.638 147.071 42.6384 147.108 42.6279C147.146 42.6174 147.179 42.5964 147.204 42.5674C147.244 42.5285 147.267 42.4757 147.27 42.4201C147.272 42.3645 147.252 42.3101 147.216 42.2683L145.79 40.7651Z" fill="#B06B0C"/>
<path d="M147.278 38.5774C147.259 38.5576 147.236 38.5419 147.211 38.531C147.185 38.5202 147.158 38.5144 147.13 38.5141C147.103 38.5139 147.076 38.519 147.05 38.5293C147.024 38.5396 147.001 38.5549 146.981 38.5743C146.962 38.5926 146.946 38.6148 146.935 38.6394C146.924 38.664 146.918 38.6906 146.918 38.7175C146.917 38.7445 146.922 38.7712 146.932 38.7962C146.942 38.8212 146.957 38.844 146.976 38.8631L148.384 40.3628C148.407 40.3878 148.436 40.4065 148.469 40.4171C148.504 40.4261 148.542 40.4256 148.577 40.4156C148.612 40.4056 148.645 40.3865 148.67 40.3601C148.69 40.3418 148.706 40.3196 148.717 40.295C148.728 40.2704 148.734 40.2438 148.734 40.2169C148.735 40.1899 148.73 40.1632 148.72 40.1382C148.71 40.1132 148.695 40.0904 148.676 40.0713L147.278 38.5774Z" fill="#B57418"/>
<path d="M148.484 36.3737C148.449 36.3342 148.399 36.3104 148.346 36.3074C148.293 36.3045 148.241 36.3226 148.201 36.3579C148.164 36.3961 148.142 36.4475 148.141 36.5012C148.14 36.555 148.16 36.6071 148.196 36.6467L149.585 38.1429C149.607 38.1703 149.637 38.1894 149.67 38.1972C149.704 38.2068 149.741 38.2068 149.775 38.1971C149.809 38.1875 149.84 38.1686 149.864 38.1426C149.883 38.1251 149.899 38.1037 149.91 38.0799C149.921 38.056 149.928 38.0302 149.928 38.0038C149.929 37.9775 149.924 37.9514 149.915 37.927C149.905 37.9025 149.89 37.8804 149.871 37.8618L148.484 36.3737Z" fill="#BB7C24"/>
<path d="M149.437 34.1718C149.421 34.1522 149.4 34.1362 149.377 34.125C149.354 34.1137 149.329 34.1074 149.303 34.1065C149.277 34.1055 149.252 34.11 149.228 34.1195C149.204 34.1291 149.182 34.1435 149.164 34.1618C149.145 34.1784 149.129 34.1989 149.118 34.222C149.106 34.2451 149.1 34.2703 149.099 34.296C149.098 34.3217 149.103 34.3472 149.112 34.3711C149.122 34.395 149.136 34.4166 149.154 34.4345L150.525 35.9272C150.56 35.9658 150.609 35.9888 150.662 35.9912C150.714 35.9936 150.765 35.9752 150.803 35.9401C150.842 35.905 150.865 35.8559 150.867 35.8038C150.87 35.7517 150.851 35.7008 150.816 35.6623L149.437 34.1718Z" fill="#C08431"/>
<path d="M150.152 31.9589C150.135 31.9403 150.114 31.9253 150.091 31.9148C150.068 31.9042 150.043 31.8983 150.018 31.8974C149.993 31.8965 149.967 31.9005 149.944 31.9094C149.92 31.9182 149.898 31.9316 149.88 31.9489C149.861 31.9661 149.846 31.9869 149.835 32.0099C149.825 32.0329 149.819 32.0578 149.818 32.0832C149.817 32.1085 149.821 32.1337 149.83 32.1575C149.839 32.1812 149.852 32.203 149.87 32.2216L151.23 33.7085C151.252 33.7295 151.277 33.746 151.305 33.757C151.338 33.7645 151.372 33.7636 151.404 33.7545C151.437 33.7453 151.466 33.7282 151.49 33.7046C151.509 33.6874 151.524 33.6667 151.534 33.6436C151.545 33.6206 151.551 33.5957 151.552 33.5704C151.553 33.545 151.549 33.5198 151.54 33.496C151.531 33.4723 151.517 33.4505 151.5 33.432L150.152 31.9589Z" fill="#C58C3D"/>
<path d="M150.645 29.7912C150.612 29.7559 150.567 29.7346 150.519 29.7319C150.471 29.7292 150.424 29.7453 150.388 29.7767C150.369 29.7931 150.354 29.813 150.344 29.8353C150.333 29.8575 150.327 29.8817 150.326 29.9064C150.325 29.9311 150.328 29.9558 150.337 29.979C150.346 30.0021 150.359 30.0233 150.376 30.0413L151.667 31.5304C151.69 31.5554 151.72 31.5741 151.752 31.5847C151.784 31.5926 151.816 31.5922 151.848 31.5834C151.879 31.5746 151.907 31.5578 151.929 31.5346C151.965 31.5021 151.986 31.4572 151.989 31.4092C151.992 31.3613 151.975 31.3142 151.944 31.278L150.645 29.7912Z" fill="#CB9549"/>
<path d="M150.936 27.6543C150.921 27.6369 150.903 27.6226 150.882 27.6123C150.861 27.602 150.839 27.5959 150.815 27.5944C150.792 27.5928 150.769 27.5958 150.747 27.6032C150.725 27.6106 150.705 27.6223 150.688 27.6375C150.652 27.67 150.631 27.7149 150.628 27.7628C150.626 27.8107 150.642 27.8578 150.673 27.8941L151.962 29.3751C151.982 29.3984 152.008 29.4153 152.037 29.4236C152.068 29.43 152.101 29.4288 152.132 29.42C152.163 29.4113 152.191 29.3953 152.214 29.3734C152.248 29.34 152.267 29.295 152.268 29.2476C152.27 29.2003 152.253 29.1543 152.221 29.1192L150.936 27.6543Z" fill="#D09D55"/>
<path d="M151.061 25.5994C151.029 25.5645 150.985 25.5437 150.938 25.5415C150.89 25.5393 150.844 25.556 150.809 25.5878C150.775 25.6195 150.754 25.6639 150.752 25.711C150.749 25.7582 150.766 25.8043 150.798 25.8391L152.082 27.304C152.106 27.329 152.135 27.3477 152.167 27.3583C152.196 27.3655 152.226 27.3651 152.254 27.3571C152.282 27.3491 152.308 27.3338 152.329 27.3127C152.346 27.2975 152.36 27.2791 152.371 27.2583C152.381 27.2376 152.387 27.2151 152.389 27.192C152.39 27.1689 152.387 27.1457 152.38 27.1238C152.372 27.1019 152.361 27.0817 152.345 27.0643L151.061 25.5994Z" fill="#D5A561"/>
<path d="M151.022 23.6169C151.008 23.5984 150.99 23.5832 150.969 23.5722C150.948 23.5612 150.925 23.5547 150.902 23.5532C150.878 23.5516 150.855 23.5549 150.833 23.563C150.811 23.5711 150.791 23.5837 150.774 23.6001C150.757 23.6149 150.744 23.6329 150.735 23.6529C150.725 23.673 150.72 23.6947 150.719 23.7169C150.718 23.739 150.721 23.7612 150.729 23.782C150.736 23.8028 150.748 23.8219 150.763 23.8382L152.045 25.2951C152.045 25.2951 152.061 25.3515 152.12 25.3436C152.155 25.3578 152.194 25.3596 152.231 25.3485C152.267 25.3375 152.299 25.3143 152.321 25.2828C152.342 25.2514 152.352 25.2135 152.349 25.1755C152.347 25.1375 152.331 25.1016 152.305 25.0737L151.022 23.6169Z" fill="#DAAD6D"/>
<path d="M150.835 21.7202C150.821 21.7042 150.804 21.6912 150.784 21.6818C150.765 21.6725 150.744 21.6671 150.723 21.6659C150.701 21.6646 150.68 21.6676 150.66 21.6746C150.64 21.6817 150.621 21.6926 150.605 21.7069C150.589 21.7211 150.576 21.7383 150.567 21.7576C150.557 21.7769 150.552 21.7978 150.551 21.8191C150.549 21.8405 150.552 21.8619 150.559 21.8821C150.566 21.9023 150.577 21.921 150.592 21.9369L151.872 23.3857C151.891 23.4065 151.916 23.4207 151.944 23.4262C151.971 23.433 152 23.4326 152.026 23.425C152.053 23.4174 152.078 23.4029 152.097 23.3829C152.114 23.368 152.127 23.3501 152.137 23.33C152.146 23.31 152.151 23.2883 152.153 23.2661C152.154 23.2439 152.15 23.2218 152.143 23.201C152.135 23.1801 152.123 23.161 152.108 23.1447L150.835 21.7202Z" fill="#E0B679"/>
<path d="M150.531 19.9347C150.503 19.9053 150.464 19.8875 150.423 19.8847C150.382 19.8818 150.342 19.894 150.309 19.9191C150.293 19.933 150.279 19.9502 150.27 19.9694C150.26 19.9887 150.255 20.0098 150.253 20.0313C150.252 20.0528 150.255 20.0743 150.263 20.0946C150.27 20.1149 150.281 20.1334 150.296 20.1492L151.571 21.5818C151.593 21.6028 151.618 21.6193 151.646 21.6303C151.673 21.6357 151.701 21.6345 151.728 21.627C151.754 21.6195 151.779 21.6058 151.799 21.587C151.829 21.5583 151.846 21.5199 151.849 21.479C151.852 21.4381 151.84 21.3975 151.815 21.365L150.531 19.9347Z" fill="#E5BE85"/>
<path d="M150.131 18.3066C150.105 18.2758 150.068 18.2567 150.028 18.2533C149.988 18.25 149.948 18.2627 149.917 18.2887C149.886 18.3147 149.867 18.3518 149.864 18.392C149.861 18.4321 149.873 18.4719 149.899 18.5027L151.173 19.9272C151.179 19.94 151.189 19.9511 151.2 19.9599C151.212 19.9687 151.225 19.9749 151.239 19.978C151.265 19.9837 151.292 19.983 151.317 19.9758C151.342 19.9686 151.365 19.9553 151.384 19.937C151.4 19.9242 151.412 19.9085 151.421 19.8908C151.431 19.8731 151.436 19.8537 151.438 19.8338C151.44 19.8139 151.437 19.7938 151.431 19.7748C151.425 19.7558 151.415 19.7382 151.402 19.7231L150.131 18.3066Z" fill="#EAC692"/>
<path d="M149.627 16.7081C149.614 16.6927 149.599 16.68 149.581 16.671C149.563 16.662 149.543 16.6569 149.523 16.656C149.503 16.6551 149.483 16.6584 149.465 16.6657C149.446 16.673 149.429 16.6841 149.415 16.6983C149.4 16.7102 149.387 16.7251 149.378 16.742C149.369 16.759 149.363 16.7777 149.361 16.7969C149.359 16.8162 149.361 16.8357 149.367 16.8541C149.373 16.8726 149.382 16.8896 149.395 16.9042L150.601 18.3044C150.617 18.3256 150.639 18.3406 150.665 18.3472C150.69 18.3546 150.718 18.3547 150.743 18.3475C150.769 18.3402 150.792 18.3259 150.81 18.3062C150.825 18.2935 150.838 18.2778 150.847 18.2599C150.856 18.242 150.861 18.2225 150.862 18.2025C150.863 18.1826 150.86 18.1626 150.852 18.144C150.845 18.1254 150.834 18.1085 150.82 18.0945L149.627 16.7081Z" fill="#EFCE9E"/>
<path d="M149.073 15.3674C149.062 15.3522 149.048 15.3394 149.032 15.3299C149.016 15.3203 148.998 15.3143 148.979 15.3122C148.961 15.3101 148.942 15.3119 148.924 15.3176C148.906 15.3232 148.89 15.3326 148.876 15.345C148.86 15.3569 148.847 15.3718 148.838 15.3887C148.829 15.4057 148.823 15.4244 148.821 15.4436C148.819 15.4629 148.821 15.4824 148.827 15.5008C148.833 15.5193 148.843 15.5363 148.855 15.5509L150.045 16.9557C150.045 16.9557 150.045 16.9557 150.109 16.9985C150.133 17.0046 150.159 17.0042 150.183 16.9974C150.207 16.9906 150.229 16.9776 150.246 16.9597C150.275 16.9344 150.293 16.899 150.297 16.8608C150.301 16.8225 150.29 16.7842 150.266 16.7538L149.073 15.3674Z" fill="#F5D7AA"/>
<path d="M148.483 14.1679C148.473 14.1501 148.459 14.1348 148.442 14.1229C148.425 14.111 148.406 14.1029 148.386 14.099C148.366 14.0952 148.345 14.0957 148.325 14.1007C148.305 14.1056 148.287 14.1148 148.271 14.1275C148.255 14.1403 148.242 14.1564 148.232 14.1747C148.223 14.193 148.218 14.2131 148.217 14.2336C148.216 14.2541 148.22 14.2745 148.228 14.2934C148.236 14.3124 148.248 14.3294 148.263 14.3433L149.436 15.7527C149.454 15.7713 149.476 15.7859 149.5 15.7954C149.523 15.7997 149.547 15.7986 149.569 15.7923C149.591 15.786 149.612 15.7746 149.629 15.759C149.644 15.7481 149.657 15.734 149.667 15.7178C149.676 15.7017 149.682 15.6837 149.684 15.665C149.687 15.6464 149.685 15.6275 149.679 15.6096C149.673 15.5917 149.664 15.5752 149.652 15.5611L148.483 14.1679Z" fill="#FADFB6"/>
<path d="M147.856 13.1524C147.833 13.1255 147.8 13.1087 147.765 13.1056C147.73 13.1025 147.695 13.1133 147.668 13.1358C147.641 13.1587 147.624 13.1908 147.619 13.2259C147.614 13.261 147.623 13.2965 147.643 13.3255L148.808 14.7372C148.824 14.7588 148.847 14.774 148.873 14.7799C148.9 14.7875 148.929 14.7862 148.956 14.7761C148.982 14.7661 149.005 14.7479 149.021 14.7241C149.036 14.7004 149.044 14.6723 149.042 14.6439C149.041 14.6155 149.031 14.5883 149.013 14.5663L147.856 13.1524Z" fill="#FFE7C2"/>
<defs>
<linearGradient id="paint0_linear_12_493" x1="3083.31" y1="2134.56" x2="3580.22" y2="2588.02" gradientUnits="userSpaceOnUse">
<stop stop-color="#CB9601"/>
<stop offset="0.02" stop-color="#D69F01"/>
<stop offset="0.07" stop-color="#EDB000"/>
<stop offset="0.11" stop-color="#FABB00"/>
<stop offset="0.15" stop-color="#FFBF00"/>
<stop offset="1" stop-color="#D9A600"/>
</linearGradient>
<linearGradient id="paint1_linear_12_493" x1="2579.77" y1="2559.45" x2="2241.72" y2="2692.31" gradientUnits="userSpaceOnUse">
<stop stop-color="#FFDF2B"/>
<stop offset="0.14" stop-color="#FFE656"/>
<stop offset="0.3" stop-color="#FFEC7F"/>
<stop offset="0.44" stop-color="#FFF09C"/>
<stop offset="0.56" stop-color="#FFF3AF"/>
<stop offset="0.65" stop-color="#FFF4B5"/>
<stop offset="0.66" stop-color="#FFEFA1"/>
<stop offset="0.68" stop-color="#FFE782"/>
<stop offset="0.7" stop-color="#FFE066"/>
<stop offset="0.72" stop-color="#FFDA50"/>
<stop offset="0.75" stop-color="#FFD63F"/>
<stop offset="0.79" stop-color="#FFD334"/>
<stop offset="0.84" stop-color="#FFD12D"/>
<stop offset="0.98" stop-color="#FFD12B"/>
</linearGradient>
<linearGradient id="paint2_linear_12_493" x1="16161.4" y1="2050.49" x2="15793" y2="3025.22" gradientUnits="userSpaceOnUse">
<stop stop-color="#FFC800"/>
<stop offset="0.08" stop-color="#FFCB0C"/>
<stop offset="0.32" stop-color="#FFD32A"/>
<stop offset="0.52" stop-color="#FFD83C"/>
<stop offset="0.67" stop-color="#FFDA42"/>
<stop offset="0.7" stop-color="#FBD73C"/>
<stop offset="0.9" stop-color="#E6C518"/>
<stop offset="1" stop-color="#DEBE0A"/>
</linearGradient>
<linearGradient id="paint3_linear_12_493" x1="159.658" y1="113.543" x2="136.833" y2="83.3261" gradientUnits="userSpaceOnUse">
<stop stop-color="#C17800"/>
<stop offset="0.07" stop-color="#CF8B14"/>
<stop offset="0.22" stop-color="#F2BB49"/>
<stop offset="0.27" stop-color="#FFCD5C"/>
<stop offset="0.38" stop-color="#E6A100"/>
<stop offset="0.5" stop-color="#FFB937"/>
<stop offset="0.66" stop-color="#FFB033"/>
<stop offset="0.73" stop-color="#FDC060"/>
<stop offset="0.86" stop-color="#F9DDB0"/>
<stop offset="0.95" stop-color="#F7EFE3"/>
<stop offset="1" stop-color="#F6F6F6"/>
</linearGradient>
<linearGradient id="paint4_linear_12_493" x1="164.447" y1="109.034" x2="140.894" y2="79.2043" gradientUnits="userSpaceOnUse">
<stop stop-color="#F9B606"/>
<stop offset="0.57" stop-color="#D69200"/>
<stop offset="0.65" stop-color="#DDA421"/>
<stop offset="0.84" stop-color="#EFD174"/>
<stop offset="1" stop-color="#FFFAC0"/>
</linearGradient>
<linearGradient id="paint5_linear_12_493" x1="161.753" y1="92.3003" x2="148.062" y2="92.8853" gradientUnits="userSpaceOnUse">
<stop stop-color="#FFB700"/>
<stop offset="0.42" stop-color="#F0B10D"/>
<stop offset="0.76" stop-color="#F2B20B"/>
<stop offset="0.94" stop-color="#FAB404"/>
<stop offset="1" stop-color="#FFB600"/>
</linearGradient>
<linearGradient id="paint6_linear_12_493" x1="7216.28" y1="1969.44" x2="7319.4" y2="1930.91" gradientUnits="userSpaceOnUse">
<stop stop-color="#DEC402"/>
<stop offset="0.43" stop-color="#EECF07"/>
<stop offset="1" stop-color="#FFDA0D"/>
</linearGradient>
<linearGradient id="paint7_linear_12_493" x1="68.1897" y1="125.764" x2="35.8436" y2="134.403" gradientUnits="userSpaceOnUse">
<stop stop-color="#FFF2AA"/>
<stop offset="1" stop-color="#FFEC44"/>
</linearGradient>
<linearGradient id="paint8_linear_12_493" x1="44.2191" y1="118.526" x2="58.298" y2="138.115" gradientUnits="userSpaceOnUse">
<stop stop-color="#FFB800"/>
<stop offset="0.01" stop-color="#FFB904"/>
<stop offset="0.19" stop-color="#FFCD45"/>
<stop offset="0.35" stop-color="#FFDD7B"/>
<stop offset="0.51" stop-color="#FFEAA6"/>
<stop offset="0.64" stop-color="#FFF3C4"/>
<stop offset="0.76" stop-color="#FFF9D6"/>
<stop offset="0.85" stop-color="#FFFBDD"/>
<stop offset="1" stop-color="#FEFBE3"/>
</linearGradient>
<linearGradient id="paint9_linear_12_493" x1="54.4027" y1="154.073" x2="79.1308" y2="132.907" gradientUnits="userSpaceOnUse">
<stop stop-color="#B87300"/>
<stop offset="0.07" stop-color="#BE7906"/>
<stop offset="0.25" stop-color="#C8830F"/>
<stop offset="0.48" stop-color="#CB8612"/>
<stop offset="0.65" stop-color="#D2870B"/>
<stop offset="0.98" stop-color="#DC8900"/>
</linearGradient>
<linearGradient id="paint10_linear_12_493" x1="32.5104" y1="147.372" x2="75.1803" y2="110.85" gradientUnits="userSpaceOnUse">
<stop stop-color="#E2A500"/>
<stop offset="0.33" stop-color="#FFF086"/>
<stop offset="0.47" stop-color="#FEEE83"/>
<stop offset="0.58" stop-color="#FDE978"/>
<stop offset="0.69" stop-color="#FADF67"/>
<stop offset="0.79" stop-color="#F6D24F"/>
<stop offset="0.89" stop-color="#F0C12F"/>
<stop offset="0.98" stop-color="#EAAC09"/>
<stop offset="1" stop-color="#E8A700"/>
</linearGradient>
<linearGradient id="paint11_linear_12_493" x1="38.7065" y1="154.611" x2="81.472" y2="118.007" gradientUnits="userSpaceOnUse">
<stop stop-color="#B26E00"/>
<stop offset="0.12" stop-color="#D49D42"/>
<stop offset="0.27" stop-color="#FFDA97"/>
<stop offset="0.34" stop-color="#FFC668"/>
<stop offset="0.38" stop-color="#F7BC53"/>
<stop offset="0.5" stop-color="#DFA017"/>
<stop offset="0.56" stop-color="#D69500"/>
<stop offset="0.69" stop-color="#F4AB00"/>
<stop offset="0.76" stop-color="#FFB300"/>
<stop offset="1" stop-color="#B46F00"/>
</linearGradient>
<linearGradient id="paint12_linear_12_493" x1="28.003" y1="143.4" x2="73.0205" y2="115.819" gradientUnits="userSpaceOnUse">
<stop stop-color="#FFDF2B"/>
<stop offset="0.09" stop-color="#FFE656"/>
<stop offset="0.19" stop-color="#FFEC7F"/>
<stop offset="0.29" stop-color="#FFF09C"/>
<stop offset="0.36" stop-color="#FFF3AF"/>
<stop offset="0.42" stop-color="#FFF4B5"/>
<stop offset="0.5" stop-color="#FFF4BD"/>
<stop offset="0.63" stop-color="#FFF3C4"/>
<stop offset="1" stop-color="#FFF3C6"/>
</linearGradient>
<linearGradient id="paint13_linear_12_493" x1="44.9184" y1="129.445" x2="58.8738" y2="129.473" gradientUnits="userSpaceOnUse">
<stop stop-color="#F7D9A6"/>
<stop offset="0.12" stop-color="#F7D7A0"/>
<stop offset="0.28" stop-color="#F6D090"/>
<stop offset="0.46" stop-color="#F4C576"/>
<stop offset="0.65" stop-color="#F1B651"/>
<stop offset="0.85" stop-color="#EEA222"/>
<stop offset="0.98" stop-color="#EC9400"/>
</linearGradient>
<linearGradient id="paint14_linear_12_493" x1="44.6007" y1="129.067" x2="58.5562" y2="129.095" gradientUnits="userSpaceOnUse">
<stop stop-color="#FFFABF"/>
<stop offset="0.13" stop-color="#FFFAB9"/>
<stop offset="0.31" stop-color="#FFFAA9"/>
<stop offset="0.5" stop-color="#FFF98F"/>
<stop offset="0.71" stop-color="#FFF96A"/>
<stop offset="0.93" stop-color="#FFF83B"/>
<stop offset="1" stop-color="#FFF82B"/>
</linearGradient>
<linearGradient id="paint15_linear_12_493" x1="110.209" y1="29.8452" x2="141.235" y2="26.5442" gradientUnits="userSpaceOnUse">
<stop stop-color="#FFE65B"/>
<stop offset="0.19" stop-color="#FFE76C"/>
<stop offset="0.57" stop-color="#FFEA9A"/>
<stop offset="0.77" stop-color="#FFEBB4"/>
</linearGradient>
<linearGradient id="paint16_linear_12_493" x1="117.366" y1="16.5507" x2="136.212" y2="39.1547" gradientUnits="userSpaceOnUse">
<stop stop-color="#FFC800"/>
<stop offset="0.1" stop-color="#FFCB0E"/>
<stop offset="0.28" stop-color="#FFD232"/>
<stop offset="0.52" stop-color="#FFDF6C"/>
<stop offset="0.82" stop-color="#FEEFBB"/>
<stop offset="0.96" stop-color="#FEF8E5"/>
</linearGradient>
<linearGradient id="paint17_linear_12_493" x1="154.691" y1="17.2167" x2="121.097" y2="55.3689" gradientUnits="userSpaceOnUse">
<stop stop-color="#F6B373"/>
<stop offset="0.14" stop-color="#F6B271"/>
<stop offset="0.19" stop-color="#F4AD6A"/>
<stop offset="0.23" stop-color="#F1A55E"/>
<stop offset="0.26" stop-color="#EC994D"/>
<stop offset="0.29" stop-color="#E78A36"/>
<stop offset="0.3" stop-color="#E68833"/>
<stop offset="0.32" stop-color="#ED9A4B"/>
<stop offset="0.36" stop-color="#F5AC63"/>
<stop offset="0.4" stop-color="#FBB974"/>
<stop offset="0.44" stop-color="#FEC17F"/>
<stop offset="0.49" stop-color="#FFC382"/>
<stop offset="0.59" stop-color="#E08402"/>
<stop offset="0.69" stop-color="#ED9518"/>
<stop offset="0.85" stop-color="#FC9C2E"/>
<stop offset="0.95" stop-color="#C7690D"/>
<stop offset="1" stop-color="#B35500"/>
</linearGradient>
<linearGradient id="paint18_linear_12_493" x1="108.694" y1="27.6525" x2="148.564" y2="29.9895" gradientUnits="userSpaceOnUse">
<stop stop-color="#E6B222"/>
<stop offset="0.15" stop-color="#E8B72F"/>
<stop offset="0.41" stop-color="#EEC450"/>
<stop offset="0.77" stop-color="#F8DA85"/>
<stop offset="1" stop-color="#FFE9AB"/>
</linearGradient>
<linearGradient id="paint19_linear_12_493" x1="105.523" y1="29.6098" x2="150.344" y2="26.9014" gradientUnits="userSpaceOnUse">
<stop stop-color="#FFE347"/>
<stop offset="0.15" stop-color="#FFEA7B"/>
<stop offset="0.29" stop-color="#FFEFA5"/>
<stop offset="0.41" stop-color="#FFF3C2"/>
<stop offset="0.51" stop-color="#FFF5D5"/>
<stop offset="0.59" stop-color="#FFF6DB"/>
<stop offset="0.64" stop-color="#FFF5D9"/>
<stop offset="1" stop-color="#FFEFD1"/>
</linearGradient>
<linearGradient id="paint20_linear_12_493" x1="120.38" y1="30.9986" x2="134.068" y2="33.2541" gradientUnits="userSpaceOnUse">
<stop stop-color="#E8AD19"/>
<stop offset="0.27" stop-color="#E2A627"/>
<stop offset="0.68" stop-color="#DB9E37"/>
<stop offset="1" stop-color="#D99B3D"/>
</linearGradient>
<linearGradient id="paint21_linear_12_493" x1="119.925" y1="30.8386" x2="133.621" y2="33.0959" gradientUnits="userSpaceOnUse">
<stop stop-color="#FFF5D9"/>
<stop offset="0.25" stop-color="#FFF3CA"/>
<stop offset="0.73" stop-color="#FFECA3"/>
<stop offset="1" stop-color="#FFE88A"/>
</linearGradient>
</defs>
</svg>
