<svg width="157" height="24" viewBox="0 0 157 24" fill="none" xmlns="http://www.w3.org/2000/svg">
<path d="M120.634 23.9153H119.017V13.5194C119.017 13.014 119.171 12.6547 119.479 12.4409C119.787 12.2277 120.192 12.1208 120.692 12.1208H123.754C124.576 12.1208 125.254 12.2223 125.786 12.424C126.319 12.6263 126.746 12.9158 127.068 13.2921C127.388 13.6683 127.613 14.1318 127.741 14.6819C127.87 15.2326 127.934 15.8559 127.934 16.5521C127.934 17.2484 127.869 17.8749 127.741 18.4306C127.613 18.9867 127.388 19.4584 127.068 19.8455C126.746 20.2332 126.319 20.5309 125.786 20.7386C125.254 20.9464 124.576 21.0505 123.754 21.0505H120.634V23.9153ZM120.634 19.9049H123.466C124.082 19.9049 124.573 19.821 124.939 19.6519C125.305 19.4834 125.584 19.2506 125.777 18.9529C125.97 18.6557 126.095 18.3019 126.153 17.8913C126.21 17.4813 126.239 17.0347 126.239 16.5516C126.239 16.0685 126.211 15.6247 126.153 15.2206C126.095 14.816 125.97 14.4709 125.777 14.1841C125.585 13.8978 125.305 13.6732 124.939 13.5102C124.573 13.3477 124.082 13.2659 123.466 13.2659H121.232C121.039 13.2659 120.891 13.3024 120.789 13.3755C120.686 13.4485 120.635 13.586 120.635 13.7882V19.9049H120.634Z" fill="white"/>
<path d="M134.443 12.0198C135.354 12.0198 136.141 12.0983 136.802 12.2559C137.463 12.4134 138.006 12.6686 138.429 13.0225C138.853 13.3764 139.168 13.8426 139.373 14.4211C139.578 14.9996 139.681 15.7101 139.681 16.5525C139.681 17.3949 139.578 18.1108 139.373 18.7008C139.168 19.2902 138.853 19.7651 138.429 20.1245C138.006 20.4838 137.463 20.7455 136.802 20.908C136.14 21.0705 135.354 21.1523 134.443 21.1523C133.531 21.1523 132.745 21.0705 132.084 20.908C131.422 20.745 130.88 20.4838 130.456 20.1245C130.032 19.7651 129.717 19.2902 129.512 18.7008C129.307 18.1108 129.204 17.3949 129.204 16.5525C129.204 15.7101 129.307 14.9996 129.512 14.4211C129.718 13.8426 130.032 13.3764 130.456 13.0225C130.88 12.6686 131.422 12.4134 132.084 12.2559C132.745 12.0983 133.531 12.0198 134.443 12.0198ZM130.899 16.5519C130.899 17.1812 130.963 17.7144 131.092 18.1523C131.22 18.5901 131.422 18.9473 131.698 19.2221C131.974 19.4974 132.337 19.697 132.787 19.8202C133.236 19.944 133.788 20.0056 134.443 20.0056C135.097 20.0056 135.65 19.944 136.099 19.8202C136.549 19.697 136.911 19.4974 137.187 19.2221C137.464 18.9473 137.665 18.5901 137.794 18.1523C137.922 17.7144 137.986 17.1806 137.986 16.5519C137.986 15.9227 137.922 15.3922 137.794 14.9598C137.665 14.5274 137.463 14.179 137.187 13.9151C136.911 13.6512 136.549 13.4603 136.099 13.3426C135.65 13.2242 135.097 13.1654 134.443 13.1654C133.788 13.1654 133.236 13.2242 132.787 13.3426C132.337 13.4603 131.974 13.6517 131.698 13.9151C131.422 14.179 131.22 14.5274 131.092 14.9598C130.963 15.3922 130.899 15.9233 130.899 16.5519Z" fill="white"/>
<path d="M141.048 19.9049H146.845C147.667 19.9049 148.078 19.5287 148.078 18.7757C148.078 18.5402 148.02 18.3493 147.904 18.2032C147.789 18.0571 147.625 17.9338 147.413 17.8324C147.201 17.7315 146.941 17.6443 146.633 17.5712C146.326 17.4982 145.972 17.4169 145.574 17.327L143.706 16.9224C142.73 16.7092 142.018 16.4142 141.569 16.038C141.119 15.6617 140.895 15.0974 140.895 14.345C140.895 13.5925 141.129 13.0336 141.597 12.6683C142.066 12.3035 142.75 12.1208 143.649 12.1208H149.176V13.2664H143.822C143.347 13.2664 143.01 13.3482 142.811 13.5107C142.611 13.6737 142.512 13.9518 142.512 14.345C142.512 14.592 142.561 14.7975 142.657 14.96C142.753 15.123 142.885 15.2577 143.052 15.3646C143.218 15.4714 143.417 15.5587 143.649 15.6258C143.88 15.6928 144.137 15.7604 144.419 15.828L146.441 16.2828C146.954 16.3951 147.417 16.5074 147.827 16.6198C148.238 16.7321 148.588 16.8782 148.877 17.0581C149.166 17.2381 149.388 17.4627 149.542 17.7321C149.696 18.002 149.773 18.3553 149.773 18.7937C149.773 19.1421 149.731 19.4535 149.648 19.7288C149.564 20.0042 149.426 20.2403 149.234 20.4366C149.041 20.6334 148.784 20.785 148.463 20.8913C148.142 20.9982 147.737 21.0516 147.25 21.0516H141.048V19.9049H141.048Z" fill="white"/>
<path d="M154.992 21.0507C154.35 21.0507 153.82 20.9864 153.403 20.8572C152.985 20.7279 152.655 20.5398 152.411 20.2928C152.167 20.0458 151.994 19.7454 151.891 19.3915C151.788 19.0376 151.737 18.6363 151.737 18.1865V13.2667H150.234V12.1211H151.737V9.25684H153.354V12.1211H156.205V13.2667H153.355V18.1025C153.355 18.4509 153.397 18.7405 153.48 18.97C153.564 19.2001 153.692 19.3855 153.866 19.5262C154.039 19.6669 154.263 19.765 154.539 19.8212C154.816 19.8773 155.146 19.9057 155.531 19.9057H156.205V21.0513H154.992V21.0507Z" fill="white"/>
<path d="M25.7026 4.6106H23.8515C23.1149 4.6106 22.5176 5.21152 22.5176 5.9526V19.7446C22.5176 20.4857 23.1149 21.0866 23.8515 21.0866H25.7026C26.4392 21.0866 27.0365 20.4857 27.0365 19.7446V5.95215C27.0365 5.21107 26.4392 4.6106 25.7026 4.6106Z" fill="white"/>
<path d="M19.0463 4.6106C17.8795 4.6106 16.9002 5.31412 16.4254 6.32177L11.5099 16.8275C11.3938 17.0762 11.1626 17.4801 10.9691 17.4801C10.776 17.4801 10.5443 17.0762 10.4282 16.8275L5.47953 6.32177C5.00514 5.31458 4.02542 4.6106 2.85859 4.6106H0L7.80181 19.8119C8.57439 21.3042 10.1578 21.273 10.9691 21.273C12.0895 21.273 13.4024 21.2107 14.0976 19.8119L21.8999 4.6106H19.0463Z" fill="white"/>
<path d="M105.251 2.0859C105.251 1.34482 104.654 0.743896 103.917 0.743896H102.066C101.33 0.743896 100.732 1.34482 100.732 2.0859V15.7089C100.732 17.792 101.466 19.0039 102.779 19.8742C104.054 20.7137 105.521 21.0866 108.264 21.0866H109.749C110.486 21.0866 111.083 20.4856 111.083 19.7445V18.2889H109.963C109.152 18.2889 107.453 18.2578 106.448 17.574C105.135 16.7033 105.251 15.1492 105.251 14.0298V2.0859H105.251Z" fill="white"/>
<path d="M76.3212 18.2887C75.51 18.2887 73.8105 18.2575 72.8066 17.5737C71.4936 16.703 71.6093 15.1489 71.6093 14.0295V7.40832H75.9916C76.7282 7.40832 77.3251 6.8074 77.3251 6.06631V4.61026H71.6093V2.08517H71.6088C71.6088 1.34409 71.0115 0.743164 70.2749 0.743164H68.4238C67.6872 0.743164 67.0899 1.34409 67.0899 2.08517V4.61026H57.666V2.08517C57.666 1.34409 57.0687 0.743164 56.3321 0.743164H54.481C53.7443 0.743164 53.147 1.34409 53.147 2.08517V4.61026H50.3271V6.06631C50.3271 6.8074 50.9245 7.40832 51.6606 7.40832H53.1466V15.7082C53.1466 17.7913 53.8805 19.0032 55.1934 19.8734C56.4682 20.713 57.9355 21.0858 60.6784 21.0858H62.164C62.9006 21.0858 63.4979 20.4849 63.4979 19.7438V18.2882H62.3779C61.5667 18.2882 59.8672 18.2571 58.8629 17.5732C57.5494 16.7025 57.6655 15.1485 57.6655 14.0291V7.40832H67.0894V15.7082C67.0894 17.7913 67.8233 19.0032 69.1368 19.8734C70.4115 20.713 71.8788 21.0858 74.6213 21.0858H76.1068C76.8434 21.0858 77.4407 20.4849 77.4407 19.7438V18.2882H76.3212V18.2887Z" fill="white"/>
<path d="M48.6669 19.7446V18.2886H38.6635C37.0027 18.2886 35.1102 18.1022 34.5311 16.3301C34.3763 15.8327 34.2602 14.7755 34.2602 14.061H46.1562C46.9674 14.061 47.7396 13.9364 48.3578 13.439C49.2073 12.7552 49.3234 11.7915 49.3234 10.952C49.3234 8.86933 48.8213 6.81739 46.4266 5.60546C44.5341 4.64178 42.0625 4.54834 39.6678 4.54834C37.7366 4.54834 34.2602 4.54834 32.0203 6.10241C29.7799 7.65649 29.5869 9.92599 29.5869 13.0035C29.5869 15.1795 29.7026 17.4486 31.0547 19.0031C32.7537 20.9305 35.2258 21.0862 37.3118 21.0862H47.3335C48.0701 21.0867 48.6669 20.4862 48.6669 19.7446ZM44.6502 10.2997C44.6502 10.7349 44.5345 11.2634 43.6459 11.2634H37.2185C35.5845 11.2634 34.2597 12.015 34.2597 12.9421V11.2634C34.2984 10.1756 34.2597 9.27377 35.1871 8.43467C36.4231 7.31526 38.277 7.34641 39.4743 7.34641C40.749 7.34641 42.2163 7.4087 43.3367 8.09253C43.9937 8.4965 44.6502 9.27377 44.6502 10.2997Z" fill="white"/>
<path d="M97.5263 19.7446V18.2886H87.5228C85.862 18.2886 83.9695 18.1022 83.3904 16.3301C83.2356 15.8327 83.1195 14.7755 83.1195 14.061H95.016C95.8273 14.061 96.5994 13.9364 97.2176 13.439C98.0672 12.7552 98.1833 11.7915 98.1833 10.952C98.1833 8.86933 97.6806 6.81739 95.286 5.60546C93.3939 4.64178 90.9218 4.54834 88.5272 4.54834C86.5959 4.54834 83.1196 4.54834 80.8797 6.10241C78.6393 7.65649 78.4463 9.92599 78.4463 13.0035C78.4463 15.1795 78.5619 17.4486 79.9141 19.0031C81.6131 20.9305 84.0852 21.0862 86.1712 21.0862H96.1928C96.929 21.0867 97.5263 20.4862 97.5263 19.7446ZM93.5095 10.2997C93.5095 10.7349 93.3939 11.2634 92.5052 11.2634H86.0783C84.4444 11.2634 83.1195 12.015 83.1195 12.9421V11.2634C83.1582 10.1756 83.1196 9.27377 84.0465 8.43467C85.2825 7.31526 87.1368 7.34641 88.3337 7.34641C89.6079 7.34641 91.0757 7.4087 92.1961 8.09253C92.8531 8.4965 93.5095 9.27377 93.5095 10.2997Z" fill="white"/>
<path d="M25.7026 0H23.8515C23.1149 0 22.5176 0.600925 22.5176 1.34201V1.71392V4.61092H22.5358C22.6637 3.84968 23.5237 3.05593 24.777 3.05593H25.7026C26.4392 3.05593 27.0365 2.455 27.0365 1.71392V1.34201C27.0365 0.600925 26.4392 0 25.7026 0Z" fill="white"/>
</svg>
