<svg width="16" height="15" viewBox="0 0 16 15" fill="none" xmlns="http://www.w3.org/2000/svg">
<path d="M14.8086 5.53516L13.7148 4.46875C13.4688 4.19531 13.0312 4.19531 12.7852 4.46875L6.25 11.0039L3.1875 7.96875C2.94141 7.69531 2.53125 7.69531 2.25781 7.96875L1.19141 9.03516C0.917969 9.30859 0.917969 9.71875 1.19141 9.96484L5.78516 14.5586C6.03125 14.832 6.44141 14.832 6.6875 14.5586L14.7812 6.46484C15.0547 6.21875 15.0547 5.80859 14.8086 5.53516ZM5.92188 8.43359C6.08594 8.625 6.38672 8.625 6.55078 8.43359L12.2383 2.74609C12.4023 2.58203 12.4023 2.30859 12.2383 2.11719L11.0078 0.886719C10.8164 0.722656 10.543 0.722656 10.3789 0.886719L6.25 5.04297L4.71875 3.51172C4.55469 3.34766 4.28125 3.34766 4.11719 3.51172L2.85938 4.74219C2.69531 4.93359 2.69531 5.20703 2.85938 5.37109L5.92188 8.43359Z" fill="#EE3300"/>
</svg>
